<?xml version="1.0" standalone="no"?>
<!DOCTYPE svg PUBLIC "-//W3C//DTD SVG 20010904//EN"
 "http://www.w3.org/TR/2001/REC-SVG-20010904/DTD/svg10.dtd">
<svg version="1.0" xmlns="http://www.w3.org/2000/svg"
 width="700.000000pt" height="700.000000pt" viewBox="0 0 700.000000 700.000000"
 preserveAspectRatio="xMidYMid meet">
<metadata>
Created by potrace 1.11, written by Peter Selinger 2001-2013
</metadata>
<g transform="translate(0.000000,700.000000) scale(0.100000,-0.100000)"
fill="#000000" stroke="none">
<path d="M860 6740 c13 -8 8 -14 -11 -12 -3 1 -6 -5 -6 -11 0 -19 44 -14 60 6
13 18 13 18 28 0 13 -16 13 -17 -3 -4 -11 8 -18 9 -18 3 0 -6 8 -16 18 -21 20
-12 22 -12 -88 -17 -183 -8 -175 -7 -176 -32 -1 -24 11 -38 20 -23 4 5 2 12
-4 16 -5 3 -10 11 -10 17 0 6 7 5 17 -3 11 -10 14 -10 9 -1 -10 18 3 15 22 -5
16 -16 16 -16 -2 -10 -15 6 -17 3 -14 -11 4 -15 0 -19 -21 -18 -14 0 -29 5
-33 11 -5 6 -8 5 -8 -2 0 -8 -15 -13 -40 -13 -22 0 -40 -4 -40 -10 0 -5 5 -10
12 -10 6 0 3 -7 -8 -16 -10 -8 -14 -13 -8 -10 6 3 11 -1 11 -8 0 -9 -14 -14
-41 -15 -23 -1 -53 -2 -68 -2 -22 -1 -28 -6 -28 -23 0 -12 6 -28 13 -35 6 -7
8 -12 2 -11 -5 2 -12 1 -15 0 -3 -1 -21 -3 -40 -5 -46 -3 -47 -4 -31 -14 12
-7 12 -13 3 -24 -7 -7 -9 -17 -5 -20 3 -4 -3 -7 -14 -7 -12 0 -24 -6 -26 -12
-4 -10 -6 -10 -6 0 -2 21 -21 13 -21 -9 0 -11 5 -17 10 -14 6 3 10 1 10 -4 0
-6 -6 -11 -14 -11 -8 0 -13 -8 -11 -17 1 -10 0 -22 -4 -28 -9 -15 -8 -29 2
-36 5 -4 -4 -6 -20 -6 -20 1 -29 7 -29 19 0 9 4 14 8 12 4 -3 8 0 8 6 0 6 5 8
12 4 7 -5 8 -3 3 6 -6 9 -4 11 6 5 8 -5 10 -4 6 0 -10 12 -38 15 -31 4 3 -5 0
-9 -5 -9 -6 0 -11 6 -11 13 0 8 -3 7 -10 -3 -5 -9 -5 -19 0 -26 6 -6 7 -14 3
-18 -4 -3 -8 -21 -9 -39 -1 -17 -3 -35 -3 -39 -1 -5 -8 -8 -17 -8 -9 0 -12 -5
-8 -12 6 -9 3 -9 -9 0 -22 18 -33 9 -31 -25 0 -15 -4 -31 -10 -35 -8 -5 -7 -8
1 -8 7 0 10 -6 7 -14 -3 -8 -15 -13 -26 -11 -11 3 -17 1 -14 -3 7 -7 11 -8 37
-11 23 -3 -4 -21 -32 -21 -16 0 -30 -3 -30 -7 -1 -5 -3 -35 -4 -68 -2 -33 -3
-63 -4 -67 0 -3 -11 -4 -23 -2 -13 2 -16 1 -8 -2 32 -14 42 -27 28 -36 -9 -6
-10 -10 -2 -15 9 -6 8 -11 -1 -20 -10 -10 -14 -9 -19 4 -5 13 -9 13 -23 2 -14
-12 -16 -12 -8 0 5 9 4 12 -3 7 -13 -8 -14 -546 -2 -566 6 -9 13 -9 29 -1 22
12 29 31 10 31 -5 0 -7 -6 -3 -12 5 -8 0 -7 -11 2 -17 14 -18 13 -11 -5 5 -15
4 -17 -4 -9 -8 8 -9 18 -2 30 5 11 8 24 5 30 -2 6 5 18 16 28 15 14 21 15 27
4 4 -7 4 -10 -1 -6 -9 8 -35 -9 -35 -23 0 -4 8 -6 18 -4 18 3 18 -1 26 -172 1
-23 5 -45 9 -49 4 -4 1 -14 -6 -23 -11 -14 -10 -14 5 -2 16 12 19 10 26 -9 7
-20 10 -21 15 -7 4 10 2 17 -5 17 -7 0 -6 5 2 15 10 12 8 14 -9 10 -14 -2 -19
0 -15 7 5 7 2 8 -6 3 -9 -5 -11 -4 -6 4 5 8 12 9 19 3 7 -5 20 -8 30 -7 9 2
14 -1 11 -6 -9 -16 -12 -59 -3 -59 4 0 7 -15 6 -32 -2 -34 -3 -34 57 -37 15
-1 16 -4 6 -16 -9 -10 -9 -15 -1 -15 16 0 9 -24 -9 -32 -15 -7 26 -12 64 -8
13 1 17 -3 13 -13 -3 -8 0 -20 6 -27 9 -10 9 -11 -3 -8 -8 3 -14 12 -14 21 1
13 -2 13 -16 4 -18 -10 -17 -12 3 -24 42 -24 67 -32 81 -27 7 3 16 -2 19 -10
4 -9 2 -16 -3 -16 -5 0 -6 -7 -3 -17 4 -11 3 -14 -6 -9 -7 4 -9 17 -6 29 5 17
4 18 -4 8 -8 -12 -12 -13 -25 -1 -9 7 -19 10 -23 6 -3 -3 -2 -6 4 -6 6 0 9
-10 8 -23 -2 -19 2 -23 24 -24 56 -2 88 -7 97 -18 12 -14 17 -38 7 -32 -5 3
-17 -2 -28 -10 -18 -14 -18 -15 -1 -9 10 3 25 1 32 -5 8 -6 14 -8 14 -4 0 4 8
1 17 -6 11 -10 14 -10 9 -1 -4 7 -1 12 8 12 16 0 20 -16 16 -53 -1 -13 4 -18
17 -17 49 6 64 0 63 -22 -4 -47 -5 -47 103 -51 30 -1 36 -12 11 -21 -21 -8
-26 -8 -20 2 3 5 -2 9 -10 9 -10 0 -11 -4 -4 -11 17 -17 11 -29 -7 -15 -16 12
-17 12 -6 -2 7 -9 11 -18 8 -20 -2 -3 7 -5 20 -5 18 0 21 3 14 12 -7 8 -7 14
1 19 15 9 30 -3 23 -20 -4 -12 3 -15 31 -15 20 0 36 -5 36 -11 0 -5 6 -7 13
-3 8 5 8 2 -2 -9 -10 -13 -10 -17 -1 -17 10 0 10 -3 1 -14 -10 -12 -6 -15 26
-15 88 -2 112 -5 103 -16 -4 -5 -9 -14 -9 -20 -1 -5 -4 -10 -8 -10 -5 0 -17
-6 -28 -13 -18 -11 -18 -12 7 -8 15 3 31 7 36 10 4 2 9 -5 9 -16 1 -12 6 -25
12 -31 7 -7 8 -3 4 12 -4 17 -1 21 21 21 26 0 30 -6 26 -47 -1 -18 5 -22 37
-25 35 -3 38 -5 38 -33 0 -27 3 -30 37 -33 21 -2 39 -9 42 -18 3 -8 2 -13 -3
-10 -4 3 -6 -5 -4 -18 4 -18 13 -25 36 -28 18 -3 41 -9 51 -13 15 -7 17 -5 11
6 -7 12 -6 12 7 1 13 -10 17 -10 21 0 2 7 4 1 4 -15 0 -25 -1 -26 -14 -10 -14
17 -14 17 -9 1 3 -10 3 -18 -1 -18 -3 0 -12 8 -20 18 -12 14 -14 15 -10 1 3
-9 1 -21 -4 -26 -5 -5 7 -9 31 -9 40 0 66 -13 43 -21 -7 -3 -13 -9 -13 -14 0
-6 5 -7 11 -3 8 4 9 -1 4 -16 -5 -16 -3 -21 6 -18 6 2 14 14 16 27 2 13 -1 20
-7 16 -6 -4 -7 1 -3 10 4 12 8 13 13 5 6 -9 9 -9 13 1 4 12 7 12 18 1 12 -11
12 -13 0 -10 -7 2 -16 -3 -19 -11 -2 -8 0 -11 5 -8 5 3 10 0 10 -8 0 -8 -4
-12 -9 -9 -4 3 -8 0 -8 -5 0 -10 29 -16 53 -12 4 0 6 -2 6 -6 -4 -22 3 -25 17
-7 8 10 13 13 9 6 -4 -7 -1 -21 7 -30 12 -16 11 -16 -6 -2 -18 14 -19 13 -13
-3 4 -10 7 -21 7 -23 0 -2 6 -4 14 -4 11 0 13 -7 6 -30 -5 -19 -5 -28 1 -25 5
4 9 1 9 -5 0 -8 9 -10 25 -6 14 4 25 2 25 -4 0 -5 8 -10 18 -11 14 0 14 -2 -3
-9 -11 -5 -14 -9 -6 -9 11 -1 11 -4 1 -16 -10 -12 -9 -16 3 -21 8 -3 21 -5 28
-3 34 4 39 -1 36 -36 -4 -34 -4 -35 33 -35 37 0 38 -1 34 -35 -1 -19 2 -35 7
-35 6 0 8 -4 5 -8 -2 -4 5 -9 17 -9 17 -2 19 0 7 7 -14 10 -10 10 40 1 3 -1
-2 -6 -10 -11 -9 -6 -11 -13 -5 -17 11 -9 16 -32 16 -78 0 -22 3 -25 9 -15 7
10 10 11 10 3 0 -7 7 -13 15 -13 11 0 10 7 -6 35 -12 19 -18 35 -15 35 3 0 13
-14 21 -30 9 -17 20 -28 25 -25 6 3 7 -1 4 -10 -4 -9 1 -22 12 -31 15 -11 16
-13 2 -8 -12 4 -16 1 -14 -13 2 -14 12 -18 38 -18 27 0 35 -3 34 -17 -1 -10
-5 -17 -11 -16 -5 2 -9 6 -8 9 1 3 -5 6 -12 6 -10 0 -12 -4 -5 -12 5 -7 6 -15
2 -19 -4 -4 -2 -7 3 -6 21 5 36 0 30 -10 -3 -5 2 -10 12 -11 16 0 16 -1 -2 -9
-20 -9 -8 -14 25 -11 13 2 13 0 1 -8 -8 -5 -20 -7 -28 -4 -9 3 -11 0 -7 -10 3
-8 16 -17 30 -20 25 -4 34 7 12 16 -8 3 -6 6 5 6 18 1 18 1 21 -74 1 -28 5
-56 9 -62 4 -6 1 -13 -5 -16 -7 -2 -1 -4 15 -4 30 -1 34 8 12 27 -22 18 -18
28 10 28 22 -1 24 -4 20 -29 -3 -16 -1 -29 3 -29 5 0 8 -15 7 -32 -1 -18 4
-47 11 -65 9 -24 10 -33 1 -37 -7 -2 -4 -5 6 -5 9 -1 17 5 17 12 0 8 4 7 11
-3 9 -13 10 -13 6 0 -2 8 -10 14 -16 13 -12 -3 -15 13 -3 20 4 2 2 3 -4 1 -6
-1 -11 4 -11 11 0 10 5 11 17 5 10 -5 20 -7 23 -4 3 3 5 -5 5 -18 0 -51 9
-138 15 -144 3 -3 3 -12 0 -20 -3 -9 1 -14 12 -14 10 0 13 -4 9 -12 -5 -9 -2
-9 9 1 19 15 22 31 6 31 -5 0 -7 -5 -3 -12 4 -7 3 -8 -5 -4 -6 4 -9 12 -6 17
4 5 0 9 -7 9 -10 0 -10 2 1 9 11 7 11 9 0 14 -8 2 -3 4 12 3 17 -1 25 -7 26
-21 1 -11 4 -52 6 -91 5 -84 9 -93 42 -89 20 2 25 -2 25 -21 0 -25 -15 -40
-24 -25 -4 5 -1 11 5 13 7 2 7 8 -3 15 -10 8 -18 9 -28 1 -12 -8 -11 -9 4 -4
14 5 17 2 12 -10 -3 -8 -6 -18 -6 -21 0 -3 -6 0 -13 6 -10 8 -14 7 -14 -3 0
-8 12 -12 33 -11 36 3 41 -4 38 -52 -1 -18 3 -33 8 -33 6 0 6 -6 -1 -14 -8 -9
-8 -16 -2 -20 6 -4 8 -13 5 -21 -3 -8 5 -21 20 -30 14 -10 23 -22 19 -28 -3
-5 0 -15 8 -21 16 -13 22 -49 6 -39 -6 4 -7 1 -1 -8 5 -8 10 -45 11 -84 2 -48
7 -72 18 -77 8 -5 12 -16 8 -26 -4 -10 2 -7 15 8 l21 25 1 -45 c5 -191 8 -228
15 -239 4 -8 2 -17 -6 -22 -12 -7 -12 -9 0 -9 9 0 10 -4 5 -13 -9 -11 -10 -31
-4 -49 7 -22 4 -54 -5 -61 -6 -5 -3 -7 7 -4 9 4 19 -1 22 -10 4 -10 2 -13 -7
-10 -8 3 -13 -3 -13 -14 0 -25 8 -24 26 4 17 26 21 55 8 63 -4 3 -5 10 -2 16
5 7 2 8 -6 3 -8 -5 -11 -4 -6 3 3 6 2 13 -4 17 -6 4 -8 11 -5 16 4 5 1 9 -6 9
-7 0 -10 3 -6 6 3 4 20 -5 37 -20 17 -14 28 -26 23 -26 -12 0 -11 -83 1 -91 4
-4 3 -10 -3 -13 -6 -4 -11 -2 -11 4 0 6 -5 8 -11 5 -6 -5 -3 -12 9 -21 21 -14
23 -29 8 -53 -5 -8 -3 -17 5 -22 12 -8 12 -11 -1 -19 -10 -6 -11 -13 -5 -17 6
-5 11 -56 10 -125 0 -68 4 -118 9 -118 6 0 6 -4 0 -10 -15 -15 -5 -80 13 -80
8 0 11 5 7 12 -4 7 -3 8 5 4 15 -10 4 -26 -18 -26 -14 0 -17 -6 -13 -28 3 -15
10 -30 16 -34 8 -5 7 -8 -1 -8 -7 0 -13 -9 -13 -20 0 -17 5 -19 31 -15 30 6
31 5 27 -25 -3 -17 -1 -33 4 -36 5 -3 4 -12 -3 -20 -6 -8 -7 -14 -2 -14 4 0 8
-26 7 -57 0 -32 4 -61 10 -65 6 -4 5 -12 -3 -22 -8 -9 -9 -16 -3 -16 5 0 17
10 26 22 17 23 17 23 6 1 -6 -12 -18 -27 -28 -32 -13 -8 -7 -10 28 -11 33 0
41 -3 30 -10 -10 -6 -11 -10 -3 -10 9 0 10 -7 3 -25 -6 -15 -6 -26 1 -30 5 -4
8 -22 6 -41 -3 -19 -2 -32 1 -29 3 2 12 -1 20 -8 13 -9 14 -9 8 1 -5 8 -1 11
15 9 20 -3 23 -10 23 -53 0 -32 6 -54 16 -62 8 -8 9 -11 3 -7 -7 3 -13 2 -13
-3 0 -5 9 -12 20 -15 17 -4 20 -2 15 14 -5 14 -2 19 12 19 13 0 15 -2 5 -9
-10 -6 -10 -10 3 -21 8 -7 13 -22 11 -35 -2 -12 0 -28 5 -36 8 -12 10 -12 19
1 7 11 10 11 10 2 0 -7 8 -12 17 -10 12 2 17 -5 17 -30 1 -17 6 -32 11 -33 6
-1 18 -5 29 -11 13 -7 16 -7 12 1 -4 6 -1 11 6 11 7 0 14 -11 14 -25 1 -14 -2
-25 -7 -25 -6 0 -4 -6 3 -14 7 -8 21 -12 30 -11 9 2 26 1 37 -2 16 -4 19 -9
11 -18 -8 -10 -8 -15 1 -20 8 -6 7 -10 -2 -16 -11 -7 -9 -9 6 -10 20 -1 100
-6 122 -8 6 -1 9 -10 6 -21 -3 -11 -9 -18 -13 -15 -10 6 -7 -22 4 -32 4 -4 6
-2 4 6 -2 7 3 16 10 18 7 3 11 -1 10 -8 -2 -10 15 -13 64 -13 36 -1 64 -5 61
-10 -3 -4 3 -6 13 -3 21 7 58 -12 62 -30 2 -15 -7 -16 -28 -3 -12 8 -12 10 -1
10 8 0 11 3 8 6 -4 4 -14 1 -24 -7 -15 -12 -16 -12 -10 3 4 12 2 15 -9 11 -8
-3 -12 -8 -10 -11 3 -3 1 -11 -4 -17 -8 -10 -3 -12 22 -10 18 2 43 -1 55 -6
14 -5 23 -5 23 1 0 5 7 7 15 4 18 -7 423 -12 442 -6 7 2 10 9 7 16 -3 6 1 3 9
-7 15 -18 16 -17 23 5 4 13 7 30 6 38 -3 13 -1 13 7 1 6 -9 6 -21 0 -32 -13
-26 -11 -31 9 -21 9 5 22 7 29 5 6 -2 14 1 18 6 3 6 11 11 16 11 6 0 8 -4 5
-8 -3 -5 1 -9 9 -9 10 0 12 4 5 12 -6 7 -6 15 2 23 8 8 6 10 -6 8 -10 -1 -22
-9 -27 -17 -7 -11 -9 -11 -9 4 0 9 -4 17 -10 17 -12 0 -9 -22 5 -32 5 -4 0 -6
-12 -5 -15 1 -19 5 -13 12 6 7 5 16 -2 23 -9 9 0 12 38 13 102 2 143 5 150 12
4 4 13 2 20 -4 8 -6 14 -6 18 0 4 5 -3 13 -15 16 -17 6 -19 9 -8 16 12 8 12
11 -1 20 -12 8 -10 9 9 4 18 -6 22 -4 15 6 -6 12 -5 12 8 1 13 -10 17 -10 21
0 4 10 8 10 16 -2 7 -10 11 -11 11 -3 0 7 7 10 15 7 8 -4 15 -2 15 4 0 6 -6
13 -12 15 -8 3 -6 6 5 6 9 1 17 -3 17 -9 0 -5 7 -10 15 -10 10 0 15 10 15 31
0 17 -4 28 -10 24 -5 -3 -6 -13 -3 -23 7 -18 5 -17 -17 12 -8 11 -10 17 -3 13
6 -4 14 -3 18 3 4 6 10 8 15 5 5 -3 18 -1 28 4 13 7 22 7 30 -1 15 -15 28 -2
15 14 -7 8 -7 22 -2 37 8 19 12 21 24 11 10 -9 15 -9 15 -1 0 6 3 10 8 10 21
-4 29 3 27 25 -2 15 5 32 18 43 11 10 17 13 14 6 -5 -8 0 -11 13 -10 11 1 20
8 21 17 1 8 2 24 3 35 0 11 8 20 16 20 8 0 21 7 28 15 11 13 12 13 9 0 -2 -8
-2 -12 0 -7 3 4 8 5 11 3 4 -2 6 12 6 32 -2 44 4 56 20 45 7 -4 4 0 -7 9 -14
13 -16 21 -8 35 6 10 11 14 11 8 0 -5 5 -3 10 5 8 12 10 12 10 -5 0 -17 2 -17
10 -5 5 8 10 11 10 5 0 -5 4 -3 10 5 5 9 5 19 -2 27 -7 9 -7 13 0 13 6 0 9 9
7 20 -2 11 1 20 7 20 6 0 5 7 -3 17 -13 15 -12 16 9 11 12 -4 20 -2 16 3 -3 5
-13 9 -22 9 -11 0 -13 3 -5 11 8 8 17 8 32 0 17 -9 22 -8 31 9 8 16 8 20 -4
20 -8 0 -17 4 -20 9 -4 5 4 7 16 4 19 -4 20 -3 8 6 -8 6 -10 11 -5 11 6 0 10
22 10 50 0 28 4 50 9 50 6 0 5 5 -2 12 -9 9 -7 15 6 25 13 10 13 13 2 11 -16
-3 -20 19 -8 44 6 12 5 18 -4 18 -8 0 -9 3 -3 8 6 4 10 23 10 44 0 30 2 35 16
27 9 -4 19 -5 23 -2 3 3 6 1 6 -6 0 -8 -7 -11 -17 -7 -17 6 -17 5 0 -8 12 -10
14 -15 6 -18 -7 -2 -9 -9 -5 -16 12 -19 37 -3 26 18 -5 9 -7 20 -4 23 9 9 11
98 2 103 -5 3 -5 11 -1 17 10 17 11 68 2 95 -5 12 -5 22 -1 22 4 0 7 33 8 73
0 57 3 71 15 69 12 -2 11 0 -1 10 -20 17 -22 48 -3 48 12 0 11 3 -3 17 -11 11
-13 18 -5 21 8 3 8 9 1 23 -6 10 -7 19 -2 19 4 0 8 14 8 31 -1 23 4 33 17 35
18 2 23 -11 8 -20 -5 -4 -11 0 -14 6 -2 7 -4 -6 -4 -29 0 -36 2 -40 12 -26 11
15 13 15 22 -1 8 -15 10 -13 11 13 0 17 -4 31 -9 31 -6 0 -7 5 -4 10 4 6 11 8
16 5 5 -4 9 -4 9 -1 0 12 -57 35 -66 26 -6 -6 -10 -3 -10 9 0 13 5 17 16 13
13 -5 13 -3 2 10 -9 11 -10 18 -2 23 6 4 9 1 8 -6 -2 -6 3 -14 11 -17 9 -3 11
0 6 9 -5 8 -4 10 0 6 16 -14 14 -36 -3 -31 -13 4 -13 3 1 -6 14 -9 22 -9 30
-1 8 8 8 11 0 11 -13 0 -12 32 2 42 6 5 5 11 -5 17 -17 12 -33 4 -24 -12 4 -7
3 -8 -1 -4 -20 18 -13 35 13 31 22 -4 24 -3 12 11 -7 8 -9 15 -4 15 5 0 10 53
12 118 1 64 3 123 4 129 2 15 13 7 13 -9 0 -6 6 -13 13 -15 6 -3 12 0 12 7 0
6 4 9 9 6 10 -6 6 37 -5 56 -6 10 -5 11 7 1 12 -10 15 -8 15 8 0 10 -6 19 -13
19 -7 0 -13 4 -13 10 0 5 5 9 12 7 7 -1 12 13 12 38 1 22 4 45 8 50 4 6 4 16
0 22 -10 16 -2 104 9 97 5 -3 7 -16 5 -28 -4 -20 -1 -23 17 -18 15 4 17 7 6
11 -7 3 -15 16 -16 28 -2 17 2 21 17 18 11 -2 23 1 26 7 4 7 2 8 -4 4 -7 -4
-12 -2 -12 3 0 6 3 11 8 11 4 0 7 28 7 63 -1 34 3 70 7 80 6 10 5 17 -2 17 -6
0 -6 7 2 19 8 13 19 18 36 15 16 -3 22 -1 19 8 -2 7 0 21 5 32 7 14 7 16 -2
11 -9 -6 -9 -3 -1 13 6 11 9 34 7 52 -3 23 0 30 10 26 20 -7 17 4 -3 20 -17
13 -17 14 2 7 17 -6 18 -5 7 9 -10 13 -9 18 5 29 16 12 17 12 6 -2 -13 -16 -8
-29 9 -29 5 0 6 5 3 11 -4 6 2 13 13 16 18 4 20 11 17 45 -4 32 -1 39 10 34 8
-3 17 -1 21 5 4 7 10 6 18 0 18 -15 29 -1 14 16 -9 11 -9 17 3 24 10 6 11 9 1
9 -9 0 -10 6 -5 18 5 9 8 30 7 45 -1 23 2 28 17 24 11 -3 17 -1 14 3 -3 5 1
11 7 14 7 3 0 3 -16 1 -21 -3 -26 -1 -18 7 6 6 8 18 5 27 -4 14 -3 14 6 1 9
-13 11 -13 11 3 0 9 5 17 10 17 7 0 7 -6 0 -20 -6 -11 -7 -20 -2 -20 19 0 35
32 36 70 1 26 5 39 12 36 8 -3 11 7 10 27 -1 27 2 31 24 32 22 0 25 5 25 33 0
24 4 31 14 27 11 -4 11 -2 2 9 -10 12 -6 13 22 11 33 -4 34 -3 30 31 -4 35 4
39 67 35 9 0 10 2 3 5 -8 3 -9 13 -4 27 4 12 7 32 6 45 -1 14 4 22 14 23 12 0
11 3 -4 9 -11 5 -14 9 -7 9 7 1 10 5 7 11 -4 6 9 10 30 10 29 0 36 3 31 15 -3
8 0 15 7 15 8 0 9 2 1 8 -20 13 0 37 31 37 24 0 30 4 31 23 1 12 -4 22 -9 22
-7 0 -7 4 1 12 6 6 25 11 42 10 19 0 30 4 30 13 0 7 3 20 6 29 3 9 1 16 -6 16
-6 0 -8 -4 -5 -10 4 -6 -1 -7 -11 -3 -13 5 -15 3 -9 -7 5 -9 4 -11 -3 -6 -7 4
-12 9 -12 11 0 9 46 29 70 30 39 2 52 13 40 35 -13 24 -13 33 0 25 6 -3 10 -1
10 5 0 6 11 8 25 6 18 -3 28 1 35 14 9 17 8 18 -7 13 -15 -6 -16 -4 -6 9 7 8
10 18 6 21 -3 4 1 8 10 8 10 1 25 2 35 3 29 2 44 16 33 30 -6 7 -8 15 -5 19 3
3 -2 4 -13 2 -10 -1 -17 -7 -16 -13 1 -5 -5 -16 -14 -24 -15 -11 -16 -11 -10
6 4 10 3 24 -2 30 -7 8 4 11 36 13 30 1 49 7 60 20 14 17 14 17 9 -1 -5 -15
-4 -17 7 -8 8 7 16 10 19 7 2 -3 4 5 3 18 -1 12 -6 20 -11 17 -5 -3 -8 -9 -6
-15 2 -5 -7 -1 -20 10 -22 19 -22 19 -8 1 10 -13 10 -17 2 -12 -8 4 -11 3 -10
-5 2 -6 -3 -13 -10 -15 -7 -1 -8 0 -3 2 5 3 7 16 5 30 -4 20 -1 23 18 20 37
-6 57 10 53 42 -3 24 0 28 23 29 68 2 73 3 66 16 -5 8 -2 7 10 -2 14 -12 19
-12 29 -1 10 10 8 12 -8 6 -17 -5 -18 -4 -5 7 18 15 24 37 10 37 -6 0 -10 -4
-10 -9 0 -5 -8 -12 -17 -15 -14 -6 -14 -3 3 15 16 15 34 21 63 21 40 -1 41 0
38 31 -2 31 -1 32 41 35 23 2 42 8 42 14 0 7 6 6 15 -2 10 -9 15 -9 15 -1 0 6
-5 11 -11 11 -6 0 0 13 13 29 13 15 27 26 32 23 5 -3 6 3 3 14 -7 17 -6 18 6
2 21 -27 52 -19 52 13 1 18 -3 25 -12 22 -7 -3 -13 0 -13 6 0 6 3 10 8 10 4
-1 26 -1 49 0 37 1 42 4 41 24 -2 39 2 47 18 47 8 0 13 -4 9 -9 -3 -5 0 -13 6
-17 7 -4 9 -3 5 4 -9 15 4 21 52 23 23 2 39 5 37 8 -3 2 0 10 6 18 9 10 8 13
0 13 -7 0 -9 5 -6 10 4 6 -4 5 -19 -1 -14 -7 -23 -16 -20 -21 3 -5 12 -4 20 3
12 10 13 9 8 -5 -6 -16 -33 -23 -35 -8 0 4 -2 17 -3 29 -2 18 0 20 11 12 9 -8
13 -8 13 0 0 6 3 10 8 10 24 -4 104 2 99 8 -4 3 -2 12 4 19 7 8 7 14 -1 19
-14 9 -13 26 3 24 6 -1 24 -1 40 0 24 1 27 5 27 35 0 33 2 34 30 31 17 -2 30
1 30 6 0 6 5 7 10 4 6 -4 9 6 8 27 -3 31 -1 33 27 33 27 0 30 3 33 38 3 33 6
37 26 33 33 -6 44 5 41 41 -2 27 1 32 26 35 16 3 29 0 29 -5 0 -6 3 -7 7 -3 4
4 8 24 8 44 0 32 3 37 23 36 12 -1 20 1 17 4 -2 3 1 12 7 20 14 17 19 35 21
82 2 25 6 34 17 32 11 -2 10 1 -3 12 -14 10 -15 15 -5 19 10 4 10 6 1 6 -7 1
-13 6 -13 11 0 15 43 29 56 19 7 -6 11 76 11 272 1 234 -1 280 -12 275 -9 -3
-12 0 -8 9 3 8 8 13 12 11 4 -3 7 11 7 29 0 18 -3 33 -6 33 -54 -5 -56 -1 -55
72 0 39 -3 70 -8 70 -4 0 -5 6 -1 13 6 10 4 10 -7 0 -7 -7 -21 -13 -31 -13
-14 0 -19 8 -18 33 0 27 -4 71 -9 100 0 4 -15 7 -32 7 -16 0 -28 4 -25 9 4 5
0 12 -6 14 -10 4 -10 6 0 6 8 1 10 6 5 14 -4 6 -8 17 -8 22 0 6 -10 11 -22 11
-13 1 -26 3 -30 4 -5 1 -11 2 -15 1 -13 -2 3 27 18 33 10 4 12 2 8 -6 -4 -7
-3 -8 5 -4 9 6 9 11 0 22 -9 11 -15 11 -25 3 -10 -8 -12 -6 -9 10 2 12 -1 21
-8 21 -8 0 -8 3 0 11 6 6 9 18 6 25 -8 20 -23 17 -17 -3 5 -17 5 -17 -9 0 -18
22 -30 22 -18 -1 6 -12 5 -23 -5 -37 -8 -10 -14 -14 -14 -9 0 6 4 14 10 20 15
15 -18 57 -40 51 -14 -4 -17 -1 -12 12 5 14 4 14 -11 2 -11 -9 -17 -10 -17 -2
0 6 5 11 11 11 8 0 8 5 -1 15 -7 9 -8 15 -2 15 5 0 12 -6 15 -14 6 -14 47 -42
47 -32 0 3 -10 14 -21 25 l-21 20 22 -6 c15 -4 21 -2 16 5 -3 6 -20 10 -36 10
-37 -1 -43 4 -44 38 -1 26 -26 49 -26 24 0 -6 5 -8 10 -5 6 3 10 -2 10 -11 0
-10 -3 -14 -7 -11 -3 4 -12 2 -20 -5 -10 -8 -17 -8 -24 -1 -8 8 -7 13 2 18 8
6 10 4 4 -6 -5 -8 -4 -10 0 -6 21 19 11 32 -28 35 -53 4 -64 12 -41 30 18 13
18 14 -3 7 -18 -5 -22 -3 -17 9 3 9 11 13 18 9 7 -4 8 -2 1 5 -5 6 -40 12 -77
13 -38 1 -68 5 -69 8 0 3 -2 17 -5 31 l-4 25 20 -24 c11 -13 20 -18 20 -13 0
6 -5 14 -11 18 -8 4 -7 9 2 15 10 6 8 8 -6 8 -72 -3 -144 5 -138 14 4 6 1 7
-7 2 -22 -14 -69 -13 -81 1 -7 8 -9 17 -6 21 4 3 2 12 -5 20 -17 21 -404 18
-412 -4 -10 -25 -7 -27 17 -7 22 19 22 19 4 -2 -9 -11 -14 -25 -10 -29 5 -5
-1 -3 -11 5 -17 13 -19 13 -14 0 4 -12 -4 -15 -42 -15 -27 0 -52 3 -56 8 -4 4
-12 7 -18 7 -6 0 -4 -5 4 -10 16 -11 10 -11 -107 -13 -55 0 -59 -2 -46 -16 11
-10 12 -16 4 -19 -9 -3 -9 -8 1 -19 10 -13 7 -15 -22 -13 -65 4 -73 1 -67 -19
3 -14 1 -18 -10 -14 -12 5 -13 2 -5 -13 9 -17 7 -20 -11 -21 -16 -2 -18 0 -8
7 12 7 12 11 2 24 -7 9 -18 13 -23 10 -7 -4 -6 -9 0 -13 23 -14 -6 -30 -56
-32 -46 -2 -56 -7 -75 -33 -11 -16 -16 -26 -9 -22 7 4 12 2 12 -3 0 -6 -18
-12 -40 -12 -53 -2 -57 -3 -67 -12 -4 -5 -3 -8 2 -7 22 5 25 -1 14 -22 -9 -19
-9 -21 2 -10 16 15 29 16 29 2 0 -5 -3 -9 -7 -8 -5 0 -16 -2 -26 -7 -9 -4 -26
-5 -37 -2 -11 3 -20 2 -20 -2 0 -5 -16 -7 -35 -6 -19 2 -35 -1 -35 -6 0 -5 4
-9 9 -9 5 0 11 -11 13 -25 3 -13 1 -22 -3 -19 -5 3 -9 12 -9 20 0 8 -4 14 -9
14 -5 0 -7 -9 -4 -20 5 -18 0 -20 -36 -20 -40 0 -41 -1 -39 -32 3 -36 6 -35
-82 -37 -36 -1 -60 -5 -60 -12 0 -6 7 -9 15 -6 8 4 17 2 20 -4 4 -5 3 -9 -2
-8 -18 3 -36 -1 -30 -8 14 -13 -16 -33 -50 -33 -23 0 -32 -4 -27 -11 11 -19
11 -103 -1 -111 -6 -5 -7 -11 0 -15 15 -11 16 -29 5 -58 -5 -14 -6 -25 -2 -25
10 0 9 -71 -1 -88 -5 -7 -3 -12 3 -12 8 0 8 -6 0 -20 -6 -11 -7 -20 -2 -20 10
0 8 -92 -2 -109 -4 -6 -2 -11 4 -11 8 0 8 -6 0 -20 -6 -11 -7 -20 -2 -20 11 0
8 -62 -3 -81 -5 -6 -4 -10 1 -6 11 6 11 -104 0 -121 -4 -7 -3 -12 2 -12 9 0 8
-93 -2 -109 -4 -6 -3 -11 1 -11 11 0 10 -70 0 -88 -5 -7 -3 -12 3 -12 8 0 8
-6 0 -20 -6 -11 -7 -20 -2 -20 10 0 8 -92 -2 -109 -4 -6 -4 -11 1 -11 4 0 8
-27 8 -59 0 -37 -4 -57 -10 -53 -5 3 -5 -1 2 -9 14 -17 14 -30 1 -46 -6 -7 -6
-13 -1 -13 11 0 11 -90 0 -107 -5 -7 -5 -13 0 -13 10 0 10 -627 0 -636 -4 -4
-2 -13 4 -21 9 -10 8 -17 -1 -28 -10 -12 -10 -15 1 -15 11 0 11 -2 -1 -10 -8
-5 -10 -10 -3 -10 6 0 10 -8 8 -17 -1 -10 -9 -17 -17 -15 -21 3 -44 -26 -31
-39 7 -7 15 -4 24 8 13 16 12 17 -3 4 -11 -8 -18 -9 -18 -3 0 16 16 23 34 16
9 -3 13 -11 9 -18 -11 -16 -11 -69 -1 -83 11 -14 0 -21 -32 -19 -30 2 -43 -24
-21 -42 13 -10 13 -11 1 -7 -13 4 -15 -4 -15 -49 0 -39 -3 -52 -13 -49 -6 3
-23 2 -36 -1 -18 -4 -22 -11 -19 -30 3 -13 0 -33 -6 -43 -7 -14 -7 -23 0 -30
7 -7 5 -15 -6 -26 -9 -9 -15 -19 -15 -22 1 -4 -1 -10 -5 -13 -4 -4 -5 0 -3 8
2 8 -5 16 -17 18 -17 2 -21 -3 -21 -22 0 -14 4 -23 8 -20 4 3 5 -2 2 -10 -3
-9 -15 -17 -25 -17 -10 -1 -25 -2 -31 -3 -7 0 -14 -16 -16 -34 -2 -18 -8 -30
-13 -27 -5 4 -9 1 -9 -5 0 -7 -8 -9 -19 -5 -14 4 -23 0 -30 -14 -8 -14 -8 -20
0 -23 8 -3 6 -10 -5 -21 -10 -9 -15 -21 -11 -26 3 -5 1 -12 -5 -16 -5 -3 -10
-11 -10 -17 0 -6 7 -5 18 3 15 13 16 12 3 -3 -7 -10 -18 -15 -25 -11 -18 12
-36 12 -36 1 0 -6 -7 -8 -15 -4 -10 3 -15 -1 -16 -12 0 -10 -3 -12 -6 -4 -2 6
-9 10 -14 6 -5 -3 -9 0 -9 6 0 6 -4 9 -9 5 -6 -3 -6 -18 -1 -35 5 -19 5 -28
-1 -25 -5 4 -9 2 -9 -3 0 -5 -20 -8 -45 -7 -44 2 -45 2 -28 -17 14 -16 15 -18
1 -13 -9 4 -19 2 -23 -4 -3 -6 -11 -11 -18 -11 -8 0 -8 3 1 12 7 7 12 17 12
23 0 5 -5 3 -10 -5 -9 -13 -10 -13 -10 0 0 13 -1 13 -10 0 -6 -10 -4 -20 6
-31 18 -20 6 -27 -43 -23 -18 1 -33 -2 -33 -7 0 -5 -5 -9 -11 -9 -5 0 -7 5 -3
11 4 8 0 8 -15 0 -11 -7 -21 -14 -21 -17 0 -3 5 -2 10 1 6 3 10 2 10 -4 0 -5
-8 -9 -19 -8 -13 1 -17 7 -13 21 3 12 1 17 -6 13 -5 -4 -9 -15 -7 -25 2 -9 4
-20 4 -23 1 -3 17 -5 37 -4 19 2 32 0 29 -3 -3 -4 -18 -7 -33 -8 -15 -1 -27
-2 -27 -4 0 -1 -25 -3 -55 -3 -30 -1 -60 -5 -65 -9 -6 -4 -17 -3 -25 2 -17 11
-42 1 -34 -14 3 -6 0 -4 -8 4 -13 15 -101 22 -91 8 6 -11 -5 -10 -29 3 -12 6
-18 7 -14 1 6 -11 -55 -8 -73 2 -13 9 -5 -34 9 -48 8 -8 11 -7 8 4 -2 8 -7 19
-13 23 -6 5 -4 7 5 4 8 -2 14 -9 13 -14 -1 -5 11 -10 27 -10 16 0 27 4 24 8
-10 16 19 21 34 5 22 -22 9 -30 -53 -33 -50 -2 -54 0 -65 28 -7 16 -15 27 -19
23 -11 -10 -7 -29 8 -40 11 -9 12 -12 1 -19 -9 -6 -11 -4 -5 5 5 9 2 10 -11 6
-11 -3 -23 -2 -29 2 -15 11 -41 47 -29 39 7 -4 14 -1 17 6 3 9 -15 12 -69 12
-41 0 -74 -4 -74 -9 0 -5 -6 -3 -13 3 -8 6 -17 8 -20 4 -4 -3 -7 -1 -7 6 0 7
-4 9 -10 6 -5 -3 -19 -8 -31 -10 -16 -3 -19 0 -15 12 6 14 4 14 -18 0 -23 -15
-26 -15 -43 1 -10 9 -14 14 -9 10 16 -13 31 -9 18 4 -7 7 -12 17 -12 23 0 5 5
3 10 -5 6 -10 10 -11 10 -2 0 6 5 12 11 12 8 0 8 -4 0 -14 -10 -11 -9 -14 1
-12 19 3 55 25 43 27 -5 1 -26 3 -45 5 -19 2 -51 6 -70 8 -19 2 -39 4 -43 5
-5 0 -5 7 -2 14 4 6 0 4 -8 -6 -10 -12 -17 -15 -22 -7 -4 6 -12 9 -19 7 -6 -3
-11 5 -11 19 0 19 4 23 20 18 16 -5 18 -4 8 6 -7 7 -25 14 -40 15 -65 4 -65 5
-60 24 2 10 0 26 -5 35 -8 14 -13 15 -24 5 -11 -9 -14 -8 -14 2 0 12 -2 12 -9
1 -7 -11 -9 -11 -14 1 -3 9 -16 13 -31 12 -14 -2 -27 1 -27 6 -3 19 -5 24 -12
36 -4 7 -8 28 -9 48 -1 37 -12 53 -23 35 -4 -6 -11 -7 -17 -4 -7 4 -8 2 -4 -4
4 -8 2 -10 -7 -6 -9 3 -13 16 -12 34 2 19 -1 27 -8 23 -6 -4 -8 0 -4 10 5 13
1 17 -14 17 -12 0 -17 -4 -14 -11 4 -6 -1 -5 -13 2 -13 8 -19 21 -17 41 1 15
-1 31 -6 33 -4 3 -5 13 -2 23 4 13 2 13 -10 -3 -9 -11 -17 -15 -17 -10 0 6 -4
5 -8 -2 -5 -8 -13 -9 -22 -3 -8 6 -10 10 -4 10 8 0 9 13 4 38 -4 21 -6 46 -4
55 1 9 -3 17 -9 17 -8 0 -7 3 1 9 21 13 -15 23 -38 11 -14 -7 -19 -5 -23 10
-3 11 -1 23 4 26 5 3 7 10 3 15 -6 10 -16 132 -18 206 0 17 -5 31 -11 30 -5
-1 -9 4 -7 11 1 8 -2 11 -9 6 -9 -5 -10 -2 -6 9 4 11 2 14 -9 10 -18 -6 -16
-78 -16 702 0 543 2 650 13 647 11 -2 10 1 -1 10 -16 14 -20 94 -6 116 4 7 4
12 -1 12 -10 0 -10 191 1 208 4 6 3 12 -2 12 -10 0 -9 30 2 48 4 6 4 12 -1 12
-4 0 -8 14 -8 30 -1 23 3 29 15 25 9 -3 8 1 -4 10 -18 14 -15 19 9 16 6 -1 3
4 -5 11 -19 17 -19 46 0 58 13 9 13 10 0 10 -12 0 -15 18 -14 103 l2 104 -35
-4 c-22 -2 -32 0 -28 7 3 5 2 10 -3 10 -5 0 -9 7 -9 15 0 10 4 12 12 5 7 -5
16 -6 20 -2 5 4 6 0 3 -9 -4 -9 -1 -16 8 -16 8 0 14 4 14 9 0 5 5 6 12 2 7 -5
8 -3 2 7 -5 8 -9 18 -9 23 0 17 -25 18 -31 2 -6 -15 -8 -15 -18 -2 -7 10 -33
16 -76 18 -63 3 -65 4 -65 30 -1 34 -4 37 -46 41 -32 2 -34 5 -32 36 2 32 0
33 -27 27 -16 -3 -32 -1 -35 4 -4 6 -11 8 -16 5 -5 -4 -6 7 -3 25 4 19 2 30
-5 31 -6 1 -15 3 -21 4 -5 1 -32 3 -59 4 -48 1 -49 1 -47 32 1 16 -1 32 -5 35
-4 2 -35 5 -69 6 -66 2 -91 17 -65 38 10 9 15 9 15 1 0 -6 -5 -11 -11 -11 -5
0 -7 -5 -3 -11 4 -8 10 -6 17 6 14 25 -15 45 -65 45 -37 0 -50 13 -25 24 6 3
2 3 -10 0 -21 -5 -27 4 -25 36 0 5 -6 6 -106 10 -65 3 -81 12 -63 34 8 10 7
17 -4 26 -10 9 -15 9 -15 1 0 -6 5 -11 11 -11 8 0 8 -4 -1 -15 -6 -8 -9 -19
-5 -25 3 -5 1 -10 -4 -10 -11 0 -13 7 -14 46 0 11 -5 21 -11 21 -7 0 -12 -8
-12 -18 0 -10 3 -16 6 -14 3 2 6 -5 6 -15 0 -18 -5 -19 -44 -6 -17 6 -20 11
-13 20 6 7 7 17 3 21 -4 5 -2 5 5 1 7 -4 10 -13 6 -21 -3 -10 1 -15 13 -15 15
0 16 2 5 9 -11 7 -11 9 0 14 11 4 11 6 1 6 -7 1 -11 5 -7 10 8 14 -486 12
-502 -1 -7 -6 -13 -6 -13 -1 0 5 -10 10 -22 10 -18 2 -20 0 -8 -7z m464 -29
c-2 -3 -12 3 -22 13 -16 17 -16 18 5 5 12 -7 20 -15 17 -18z m46 19 c0 -5 -5
-10 -11 -10 -5 0 -7 5 -4 10 3 6 8 10 11 10 2 0 4 -4 4 -10z m4675 1 c3 -5 0
-13 -6 -17 -7 -4 -9 -3 -5 4 3 5 0 13 -6 15 -9 4 -10 6 -1 6 6 1 14 -3 18 -8z
m-5155 -11 c0 -5 -4 -10 -10 -10 -5 0 -10 5 -10 10 0 6 5 10 10 10 6 0 10 -4
10 -10z m4837 -8 c0 -10 -6 -19 -13 -19 -9 0 -9 5 -1 19 7 10 13 18 14 18 1 0
1 -8 0 -18z m-4747 -13 c0 -4 -7 -6 -15 -3 -8 4 -15 10 -15 15 0 4 7 6 15 3 8
-4 15 -10 15 -15z m5104 -5 c3 -8 2 -12 -4 -9 -6 3 -10 10 -10 16 0 14 7 11
14 -7z m-651 -37 c20 13 34 11 34 -3 0 -9 -4 -11 -12 -4 -7 5 -15 7 -19 3 -4
-4 3 -12 15 -19 14 -7 18 -14 10 -18 -6 -4 -11 -2 -11 3 0 6 -5 11 -11 11 -5
0 -7 -6 -3 -12 5 -10 4 -10 -6 -1 -8 7 -15 23 -16 35 -2 13 0 17 2 10 3 -6 11
-9 17 -5z m-3796 -11 c-2 -6 -14 -12 -28 -13 -15 -1 -17 0 -6 3 9 3 15 9 13
13 -3 4 2 8 10 8 8 0 13 -5 11 -11z m18 -26 c3 -5 -3 -10 -15 -10 -12 0 -18 5
-15 10 3 6 10 10 15 10 5 0 12 -4 15 -10z m-1194 -110 c6 0 8 4 5 8 -3 5 0 9
7 9 7 0 13 -13 14 -29 1 -26 0 -27 -13 -11 -13 17 -14 17 -7 -2 6 -17 5 -18
-8 -5 -8 7 -15 23 -16 34 -1 12 1 15 4 9 3 -7 9 -13 14 -13z m4720 -1 c-2 -8
-4 -19 -4 -24 -1 -17 -35 -15 -41 1 -4 10 -2 12 6 8 7 -5 9 -2 5 8 -7 20 -1
27 21 23 9 -1 15 -9 13 -16z m-3331 -9 c0 -5 -2 -10 -4 -10 -3 0 -8 5 -11 10
-3 6 -1 10 4 10 6 0 11 -4 11 -10z m4720 -21 c0 -5 -7 -9 -15 -9 -15 0 -20 12
-9 23 8 8 24 -1 24 -14z m-4583 -32 c-3 -8 1 -14 9 -14 9 0 13 6 9 16 -5 12
-3 13 5 5 13 -13 4 -40 -16 -48 -10 -4 -12 -2 -8 6 5 8 2 9 -10 5 -13 -5 -15
-3 -7 12 6 10 7 21 4 25 -3 3 -1 6 6 6 7 0 11 -6 8 -13z m-1572 -7 c3 -5 1
-10 -4 -10 -6 0 -11 5 -11 10 0 6 2 10 4 10 3 0 8 -4 11 -10z m0 -39 c-3 -2
-11 2 -20 9 -12 10 -15 10 -15 0 0 -8 -3 -11 -6 -7 -14 14 7 26 26 15 11 -7
17 -14 15 -17z m-65 -21 c0 -5 -2 -10 -4 -10 -3 0 -8 5 -11 10 -3 6 -1 10 4
10 6 0 11 -4 11 -10z m4616 -25 c0 -17 -3 -22 -10 -15 -14 14 -15 49 -1 44 6
-3 11 -16 11 -29z m-4616 0 c0 -2 -10 -9 -22 -15 -22 -11 -22 -10 -4 4 21 17
26 19 26 11z m6354 -13 c3 -5 -1 -9 -9 -9 -8 0 -12 4 -9 9 3 4 7 8 9 8 2 0 6
-4 9 -8z m-4337 -107 c0 -8 -4 -12 -9 -9 -4 3 -8 9 -8 15 0 5 4 9 8 9 5 0 9
-7 9 -15z m-2257 -215 c0 -5 -5 -10 -11 -10 -5 0 -7 5 -4 10 3 6 8 10 11 10 2
0 4 -4 4 -10z m6876 -143 c1 -8 -5 -22 -14 -30 -15 -13 -19 -13 -30 -1 -8 9
-9 14 -2 14 6 0 8 5 5 10 -3 6 -4 14 -1 19 9 15 39 6 42 -12z m-6953 -64 c-4
-11 -3 -14 5 -9 8 5 10 1 5 -10 -5 -13 -3 -15 8 -9 8 5 11 4 6 0 -14 -16 -36
-14 -30 3 5 11 3 13 -6 7 -10 -6 -11 -3 -2 14 14 25 23 28 14 4z m6951 -11 c3
-5 -1 -9 -9 -9 -8 0 -12 4 -9 9 3 4 7 8 9 8 2 0 6 -4 9 -8z m-6957 -67 c0 -8
-4 -12 -9 -9 -5 3 -6 10 -3 15 9 13 12 11 12 -6z m6927 -380 c-4 -10 0 -13 15
-10 12 2 21 0 21 -6 0 -5 -5 -9 -11 -9 -8 0 -7 -6 2 -17 8 -9 9 -14 2 -10 -6
4 -13 1 -16 -5 -2 -7 -8 -10 -12 -6 -9 9 -16 59 -9 70 9 13 14 9 8 -7z m-38
-231 c-1 -7 -8 -19 -15 -28 -17 -21 -41 -4 -34 24 6 21 52 25 49 4z m-6596
-309 c7 -9 8 -15 2 -15 -5 0 -12 7 -16 15 -3 8 -4 15 -2 15 2 0 9 -7 16 -15z
m297 -217 c-3 -8 -6 -5 -6 6 -1 11 2 17 5 13 3 -3 4 -12 1 -19z m5592 -143 c0
-5 -4 -3 -9 5 -5 8 -9 22 -9 30 0 16 17 -16 18 -35z m-5384 25 c3 -5 1 -10 -4
-10 -6 0 -11 5 -11 10 0 6 2 10 4 10 3 0 8 -4 11 -10z m5303 -66 c-23 -26 -49
-34 -27 -8 10 12 10 17 0 23 -7 5 -1 8 18 9 l30 1 -21 -25z m-4958 -188 c0 -3
-4 -8 -10 -11 -5 -3 -10 -1 -10 4 0 6 5 11 10 11 6 0 10 -2 10 -4z m6 -36 c0
-12 -4 -16 -9 -11 -5 5 -6 14 -3 20 10 15 12 14 12 -9z m4559 -148 c-3 -3 -12
-7 -21 -8 -11 -2 -12 1 -5 10 6 7 7 17 3 22 -4 4 1 2 11 -5 9 -8 15 -16 12
-19z m-3320 -12 c11 -12 20 -37 21 -58 1 -20 0 -29 -3 -19 -2 9 -10 17 -16 17
-8 0 -7 3 2 9 11 7 9 10 -7 15 -23 8 -38 36 -19 36 8 0 6 4 -3 10 -8 5 -10 10
-4 10 6 0 19 -9 29 -20z m3240 -20 c3 -5 1 -12 -5 -15 -8 -5 -8 -11 0 -20 9
-10 7 -13 -7 -10 -10 2 -20 4 -23 4 -3 1 -6 11 -8 24 -1 16 4 23 18 24 11 1
22 -2 25 -7z m-3248 -26 c-3 -3 -12 -4 -19 -1 -8 3 -5 6 6 6 11 1 17 -2 13 -5z
m8 -24 c3 -5 -3 -10 -15 -10 -12 0 -18 5 -15 10 3 6 10 10 15 10 5 0 12 -4 15
-10z m-950 -42 c2 -18 1 -19 -10 -5 -7 9 -15 14 -18 10 -4 -3 -7 -1 -7 5 0 11
22 22 29 15 3 -2 5 -13 6 -25z m4122 5 c10 -15 11 -23 3 -28 -6 -3 -10 -3 -9
2 3 19 -2 36 -8 29 -5 -4 -8 -12 -8 -17 0 -5 -4 -9 -10 -9 -8 0 -11 21 -6 46
2 11 24 -2 38 -23z m-3159 -10 c-4 -20 -35 -26 -35 -7 0 11 3 11 15 1 13 -10
15 -9 10 11 -4 13 -2 20 3 16 6 -3 9 -13 7 -21z m-983 -13 c3 -5 1 -10 -4 -10
-6 0 -11 5 -11 10 0 6 2 10 4 10 3 0 8 -4 11 -10z m75 -54 c0 -2 -8 -10 -17
-17 -16 -13 -17 -12 -4 4 13 16 21 21 21 13z m3965 -5 c3 -5 2 -12 -3 -15 -5
-3 -9 1 -9 9 0 17 3 19 12 6z m-945 -117 c0 -8 -19 -13 -24 -6 -3 5 1 9 9 9 8
0 15 -2 15 -3z m-22 -45 c-3 -8 -7 -3 -11 10 -4 17 -3 21 5 13 5 -5 8 -16 6
-23z m32 21 c0 -5 -5 -10 -11 -10 -5 0 -7 5 -4 10 3 6 8 10 11 10 2 0 4 -4 4
-10z m-2805 -110 c3 -5 1 -10 -4 -10 -6 0 -11 5 -11 10 0 6 2 10 4 10 3 0 8
-4 11 -10z m3548 -3 c-4 -6 0 -8 10 -4 13 5 14 2 8 -16 -10 -27 -47 -30 -45
-4 3 31 4 34 19 34 8 0 11 -5 8 -10z m-889 -79 c-3 -5 -10 -6 -15 -3 -5 4 -9
2 -9 -3 0 -17 13 -22 27 -10 11 8 12 7 7 -5 -7 -20 -49 -16 -49 4 -1 8 3 17 8
20 12 9 37 7 31 -3z m-1761 -21 c7 3 8 2 4 -2 -14 -16 -36 -14 -29 3 4 10 7
12 10 4 2 -7 9 -9 15 -5z m71 -59 c-2 -43 -2 -42 -17 -29 -8 6 -16 8 -19 5 -3
-2 -8 1 -11 9 -3 8 1 14 9 14 8 0 14 -4 14 -9 0 -5 5 -6 10 -3 6 4 8 11 5 16
-5 8 1 29 8 29 2 0 2 -15 1 -32z m1636 12 c0 -15 -14 -19 -34 -9 -17 9 -17 7
4 -11 24 -21 24 -22 3 -17 -12 3 -24 0 -26 -7 -2 -6 -4 3 -5 20 0 27 2 31 29
31 16 0 29 -3 29 -7z m-2460 -60 c0 -5 -2 -10 -4 -10 -3 0 -8 5 -11 10 -3 6
-1 10 4 10 6 0 11 -4 11 -10z m951 -98 c-7 -2 -18 1 -23 6 -8 8 -4 9 13 5 13
-4 18 -8 10 -11z m1336 -7 c0 -8 -4 -12 -9 -9 -5 3 -6 10 -3 15 9 13 12 11 12
-6z m-2256 -62 c13 -16 12 -17 -3 -4 -17 13 -22 21 -14 21 2 0 10 -8 17 -17z
m2141 -11 c-7 -2 -10 -8 -7 -13 4 -5 -1 -6 -9 -3 -9 3 -16 9 -16 13 0 14 12
20 28 13 10 -4 12 -7 4 -10z m953 -92 c-3 -5 0 -10 7 -11 11 0 11 -2 0 -6 -10
-4 -9 -10 5 -26 14 -17 14 -19 1 -9 -11 9 -18 10 -23 2 -3 -6 -11 -8 -16 -4
-5 3 -7 9 -4 14 3 5 1 11 -5 15 -6 4 -8 11 -4 16 3 5 9 7 14 4 5 -3 11 -1 15
5 3 5 8 10 11 10 3 0 2 -4 -1 -10z m-1644 -44 c9 -19 9 -19 -4 -3 -8 9 -17 17
-20 17 -4 0 -4 -8 0 -17 3 -10 3 -15 -1 -12 -4 4 -8 16 -11 27 -5 27 21 18 36
-12z m244 24 c3 -5 1 -18 -5 -27 -11 -17 -11 -16 -5 1 3 11 0 23 -7 28 -9 5
-10 8 -1 8 6 0 15 -4 18 -10z m56 -7 c13 -16 12 -17 -3 -4 -17 13 -22 21 -14
21 2 0 10 -8 17 -17z m36 -12 c0 -11 -5 -18 -9 -15 -4 3 -5 11 -1 19 7 21 12
19 10 -4z m1158 -251 c3 -5 1 -10 -4 -10 -6 0 -11 5 -11 10 0 6 2 10 4 10 3 0
8 -4 11 -10z m-62 -215 c-3 -9 -8 -14 -10 -11 -3 3 -2 9 2 15 9 16 15 13 8 -4z
m-2573 1 c0 -3 -4 -8 -10 -11 -5 -3 -10 -1 -10 4 0 6 5 11 10 11 6 0 10 -2 10
-4z m2560 -48 c0 -19 -16 -5 -17 14 -2 18 0 20 7 8 5 -8 10 -18 10 -22z
m-2549 -24 c17 -20 -2 -17 -31 6 -24 18 -24 19 -3 14 12 -4 28 -12 34 -20z m4
-34 c3 -5 1 -10 -4 -10 -6 0 -11 5 -11 10 0 6 2 10 4 10 3 0 8 -4 11 -10z m41
-195 c3 -29 1 -33 -10 -22 -8 6 -10 14 -5 15 5 2 9 11 9 20 0 15 -2 15 -10 2
-11 -17 -13 -9 -4 15 9 23 17 11 20 -30z m2421 13 c-3 -8 -6 -5 -6 6 -1 11 2
17 5 13 3 -3 4 -12 1 -19z m37 -57 c3 -4 -2 -17 -10 -27 -9 -10 -13 -14 -10
-7 4 6 -4 19 -16 27 l-22 16 26 0 c15 0 29 -4 32 -9z m-2374 -257 c0 -8 -19
-13 -24 -6 -3 5 1 9 9 9 8 0 15 -2 15 -3z m-7 -43 c-2 -6 2 -11 7 -11 6 0 10
-5 10 -11 0 -8 -5 -8 -15 1 -8 7 -13 16 -10 20 3 5 0 11 -5 13 -6 3 -5 4 2 3
7 -2 12 -9 11 -15z m-6 -113 c3 -22 2 -22 -9 -3 -17 28 -20 51 -5 36 6 -6 12
-21 14 -33z m2323 -37 c0 -4 -7 -8 -15 -8 -16 0 -20 9 -9 20 8 8 24 -1 24 -12z
m-2240 -367 c0 -8 -19 -13 -24 -6 -3 5 1 9 9 9 8 0 15 -2 15 -3z m2165 -4 c3
-5 1 -10 -4 -10 -6 0 -11 5 -11 10 0 6 2 10 4 10 3 0 8 -4 11 -10z m-34 -17
c13 -16 12 -17 -3 -4 -17 13 -22 21 -14 21 2 0 10 -8 17 -17z m-2125 -59 c1
-9 0 -13 -4 -10 -3 4 -7 14 -8 22 -1 9 0 13 4 10 3 -4 7 -14 8 -22z m2139 6
c-3 -5 -12 -10 -18 -10 -7 0 -6 4 3 10 19 12 23 12 15 0z m22 -22 c-3 -8 -6
-5 -6 6 -1 11 2 17 5 13 3 -3 4 -12 1 -19z m-29 -17 c-7 -11 -16 -18 -20 -15
-4 3 -2 11 5 19 18 21 29 18 15 -4z m-2132 -22 c1 -21 -1 -27 -7 -18 -4 7 -11
11 -14 7 -3 -3 1 -13 10 -22 12 -12 13 -16 3 -16 -10 0 -9 -3 2 -10 8 -5 11
-10 5 -11 -5 0 -18 -2 -27 -4 -22 -4 -24 11 -3 19 8 3 12 12 9 21 -3 8 -11 12
-18 9 -6 -3 0 4 13 15 13 12 20 21 17 21 -4 0 -4 5 -1 10 9 15 10 13 11 -21z
m2168 -8 c4 -5 -3 -7 -14 -4 -23 6 -26 13 -6 13 8 0 17 -4 20 -9z m-2084 -317
c0 -2 -9 -8 -20 -14 -15 -8 -18 -8 -14 3 4 11 34 21 34 11z m1980 2 c0 -3 -4
-8 -10 -11 -5 -3 -10 -1 -10 4 0 6 5 11 10 11 6 0 10 -2 10 -4z m21 -33 c13
-16 12 -17 -3 -4 -10 7 -18 15 -18 17 0 8 8 3 21 -13z m-1891 -228 c-14 -17
-30 -20 -30 -4 0 5 4 8 9 4 5 -3 12 -1 16 5 3 5 9 10 12 10 3 0 0 -7 -7 -15z
m1749 -17 c-8 -15 -13 -17 -25 -7 -8 6 -14 14 -14 16 0 3 8 -1 17 -8 14 -12
16 -12 11 2 -4 9 -1 16 7 16 11 0 11 -5 4 -19z m-1483 -274 c-5 -13 -2 -15 15
-11 16 4 19 3 11 -5 -15 -15 -43 -2 -36 17 3 8 8 15 11 15 3 0 2 -7 -1 -16z
m145 -91 c13 -16 12 -17 -3 -4 -10 7 -18 15 -18 17 0 8 8 3 21 -13z m208 -43
c-6 -5 -18 -6 -26 -3 -19 8 -16 11 13 11 17 0 22 -3 13 -8z m36 -20 c3 -6 -1
-7 -9 -4 -18 7 -21 14 -7 14 6 0 13 -4 16 -10z m445 0 c0 -5 -2 -10 -4 -10 -3
0 -8 5 -11 10 -3 6 -1 10 4 10 6 0 11 -4 11 -10z"/>
<path d="M5156 6508 c3 -5 10 -6 15 -3 13 9 11 12 -6 12 -8 0 -12 -4 -9 -9z"/>
<path d="M6950 5878 c0 -4 6 -8 13 -8 8 0 7 -4 -3 -11 -12 -8 -12 -10 -1 -7
19 5 23 35 5 35 -8 0 -14 -4 -14 -9z"/>
<path d="M6957 5333 c-10 -9 -9 -23 1 -23 5 0 9 7 9 15 0 17 -1 18 -10 8z"/>
<path d="M6882 5114 c-14 -16 -5 -18 17 -5 7 5 9 11 5 14 -5 3 -15 -1 -22 -9z"/>
<path d="M5625 4000 c-3 -6 1 -7 9 -4 18 7 21 14 7 14 -6 0 -13 -4 -16 -10z"/>
<path d="M5273 3567 c0 -8 6 -14 14 -14 7 0 12 5 10 11 -5 15 -24 18 -24 3z"/>
<path d="M4990 3085 c5 -7 6 -16 2 -21 -4 -5 -3 -5 2 -1 15 12 15 34 0 34 -9
0 -11 -4 -4 -12z"/>
<path d="M5550 6740 c0 -5 5 -10 10 -10 6 0 10 5 10 10 0 6 -4 10 -10 10 -5 0
-10 -4 -10 -10z"/>
<path d="M5609 6741 c-1 -3 -1 -9 0 -13 0 -5 -3 -8 -8 -8 -5 0 -11 -6 -14 -14
-8 -21 54 -12 70 10 7 10 13 21 13 24 0 8 -60 8 -61 1z m39 -22 c3 -11 1 -11
-7 1 -6 8 -11 10 -11 4 0 -7 -7 -15 -16 -18 -13 -5 -14 -4 -6 7 7 8 9 16 6 20
-3 3 2 4 12 3 10 -2 20 -9 22 -17z"/>
<path d="M6097 6738 c7 -12 9 -17 12 -36 0 -4 12 -8 25 -8 14 0 24 5 23 11 -1
5 4 9 11 7 10 -2 10 2 3 17 -11 19 -26 22 -48 8 -8 -5 -13 -4 -13 2 0 6 -5 11
-11 11 -6 0 -7 -5 -2 -12z m52 -19 c-5 -11 -16 -16 -24 -12 -19 7 -3 30 19 30
11 0 13 -5 5 -18z"/>
<path d="M806 6722 c-3 -5 1 -9 9 -9 8 0 12 4 9 9 -3 4 -7 8 -9 8 -2 0 -6 -4
-9 -8z"/>
<path d="M896 6702 c-3 -5 1 -9 9 -9 8 0 12 4 9 9 -3 4 -7 8 -9 8 -2 0 -6 -4
-9 -8z"/>
<path d="M636 6672 c-2 -4 -1 -14 4 -22 7 -11 9 -9 7 8 -1 24 -3 26 -11 14z"/>
<path d="M1665 6669 c-4 -6 -5 -12 -2 -15 2 -3 7 2 10 11 7 17 1 20 -8 4z"/>
<path d="M6357 6673 c-10 -9 -9 -23 1 -23 5 0 9 7 9 15 0 17 -1 18 -10 8z"/>
<path d="M6350 6630 c0 -5 5 -10 11 -10 5 0 7 5 4 10 -3 6 -8 10 -11 10 -2 0
-4 -4 -4 -10z"/>
<path d="M535 6600 c-3 -5 -1 -10 4 -10 6 0 11 5 11 10 0 6 -2 10 -4 10 -3 0
-8 -4 -11 -10z"/>
<path d="M1787 6593 c3 -7 10 -13 17 -13 6 0 4 -4 -4 -10 -8 -5 -12 -11 -9
-15 3 -3 14 4 25 16 14 15 15 20 4 17 -8 -2 -14 2 -13 8 1 6 -4 11 -12 11 -7
0 -11 -6 -8 -14z"/>
<path d="M5270 6595 c7 -8 16 -12 21 -9 16 9 10 20 -12 21 -17 2 -18 -1 -9
-12z"/>
<path d="M496 6581 c-3 -4 6 -8 20 -9 13 -1 24 0 24 2 0 7 -40 14 -44 7z"/>
<path d="M1914 6509 c-3 -6 -2 -15 3 -20 5 -5 9 -1 9 11 0 23 -2 24 -12 9z"/>
<path d="M2145 6380 c-3 -6 1 -7 9 -4 18 7 21 14 7 14 -6 0 -13 -4 -16 -10z"/>
<path d="M2190 6319 c0 -4 6 -10 13 -12 9 -4 8 -8 -3 -16 -8 -5 -11 -13 -7
-18 11 -10 28 18 22 35 -3 7 0 10 6 7 5 -4 7 -15 4 -24 -3 -11 0 -18 7 -18 12
0 19 45 8 48 -22 6 -50 5 -50 -2z"/>
<path d="M4800 6316 c5 -5 10 -14 10 -20 0 -6 -5 -5 -12 2 -17 17 -24 15 -25
-8 -1 -11 3 -20 8 -20 6 0 7 5 4 11 -4 6 -1 10 6 8 32 -4 42 1 30 14 -6 8 -9
16 -6 19 3 2 -2 5 -10 5 -11 0 -12 -4 -5 -11z"/>
<path d="M6774 6314 c5 -14 -17 -37 -27 -29 -4 3 -5 2 -2 -2 9 -12 36 -12 28
0 -4 6 -1 8 8 5 9 -4 14 2 14 17 0 12 -6 22 -13 22 -7 0 -11 -6 -8 -13z"/>
<path d="M4657 6236 c-4 -10 -1 -13 8 -9 8 3 12 9 9 14 -7 12 -11 11 -17 -5z"/>
<path d="M173 6215 c0 -8 4 -12 9 -9 5 3 6 10 3 15 -9 13 -12 11 -12 -6z"/>
<path d="M3296 6181 c-4 -6 -2 -11 5 -11 9 0 9 -3 0 -14 -9 -10 -8 -15 3 -19
11 -4 13 -1 9 11 -6 14 -4 15 9 5 8 -7 18 -10 21 -6 4 3 7 1 7 -6 0 -7 13 -2
31 13 17 14 36 26 42 25 8 0 8 -2 -1 -6 -6 -2 -10 -9 -7 -14 4 -5 -2 -6 -12
-3 -14 4 -12 1 6 -15 13 -12 19 -21 13 -21 -5 0 -15 7 -22 15 -7 8 -17 12 -22
9 -7 -4 -7 -9 0 -13 6 -3 -40 -7 -101 -9 -116 -3 -131 -6 -123 -27 2 -7 -1
-18 -7 -24 -9 -9 -8 -10 7 -5 13 5 17 4 12 -4 -4 -7 -24 -12 -44 -12 -84 0
-97 -4 -99 -34 -1 -15 -7 -33 -13 -41 -6 -7 -7 -21 -3 -30 4 -13 3 -16 -5 -11
-7 4 -12 16 -12 27 0 12 -7 19 -20 19 -12 0 -20 -7 -20 -16 0 -14 3 -14 15 -4
13 11 14 10 9 -4 -3 -9 -14 -16 -23 -16 -13 0 -13 -2 -2 -9 8 -5 20 -7 28 -4
7 3 13 0 13 -5 0 -6 -9 -9 -20 -7 -11 2 -22 -1 -25 -6 -4 -5 -11 -7 -16 -3 -5
3 -16 0 -24 -6 -11 -9 -15 -9 -15 -1 0 6 -5 11 -11 11 -8 0 -8 -4 0 -14 7 -8
8 -17 3 -20 -5 -3 -8 -15 -7 -28 1 -13 -2 -33 -6 -46 -6 -15 -5 -21 1 -17 6 3
10 1 10 -4 0 -6 -16 -11 -35 -11 -38 0 -37 3 -38 -82 -1 -33 -6 -57 -15 -64
-8 -6 -12 -19 -9 -30 4 -17 5 -16 6 4 0 12 5 22 9 22 5 0 8 -10 6 -22 -1 -13
-3 -23 -4 -23 -8 0 -5 -62 4 -67 8 -5 7 -8 -2 -8 -7 0 -11 -4 -7 -9 3 -5 1
-12 -5 -16 -5 -3 -10 -11 -10 -16 0 -6 4 -8 9 -4 5 3 12 1 15 -4 4 -5 2 -12
-3 -16 -6 -3 -8 -13 -5 -23 5 -14 4 -14 -4 -2 -6 8 -9 17 -6 21 2 4 0 10 -6
14 -5 3 -10 1 -10 -6 0 -6 -8 -9 -17 -7 -16 4 -18 -3 -18 -59 0 -34 3 -63 8
-63 7 0 11 16 8 39 -2 8 6 5 20 -8 13 -12 26 -21 31 -21 4 0 -5 -14 -22 -31
-16 -18 -30 -36 -30 -40 0 -5 0 -12 0 -16 0 -5 5 -9 10 -9 6 -1 15 -2 21 -3 5
0 7 -7 3 -13 -5 -7 -9 -36 -9 -65 -1 -39 1 -50 10 -43 8 6 11 2 11 -15 0 -18
-3 -22 -12 -14 -10 8 -12 5 -11 -10 1 -13 6 -20 14 -17 22 9 25 -13 3 -26 -24
-16 -27 -33 -3 -24 10 4 14 4 10 0 -4 -4 -2 -13 5 -21 9 -11 7 -12 -8 -6 -17
6 -17 5 -5 -10 7 -9 10 -17 6 -17 -4 0 -2 -6 4 -14 8 -10 9 -16 1 -21 -5 -3
-10 -13 -10 -21 0 -10 5 -12 13 -8 8 6 8 3 -2 -9 -7 -9 -10 -25 -7 -34 6 -17
5 -17 -7 -1 -12 15 -14 15 -25 0 -10 -14 -11 -14 -2 5 7 15 6 23 -3 27 -6 3
-2 3 10 0 18 -4 22 -2 17 10 -3 9 -10 14 -14 11 -5 -3 -12 0 -16 6 -4 7 -3 9
3 6 7 -4 10 3 9 18 0 14 -5 25 -11 25 -5 0 -3 4 5 10 8 5 11 13 6 17 -5 4 -11
2 -13 -5 -3 -6 -10 -9 -16 -5 -9 5 -9 3 -2 -8 12 -17 13 -39 1 -58 -6 -10 -5
-12 2 -7 14 9 15 -3 3 -23 -6 -9 -6 -22 1 -34 7 -14 7 -22 -2 -27 -8 -5 -7 -9
5 -14 19 -7 35 0 35 16 0 6 -7 5 -17 -3 -16 -13 -17 -12 -4 3 10 14 17 15 32
7 11 -5 17 -14 14 -20 -4 -5 -11 -7 -16 -4 -5 4 -9 2 -9 -4 0 -5 5 -13 10 -16
6 -4 8 -11 4 -16 -3 -5 0 -18 8 -27 12 -15 11 -16 -5 -3 -9 7 -16 21 -15 29 2
9 -8 18 -25 23 -24 6 -26 5 -17 -7 7 -7 17 -11 24 -7 6 3 8 2 3 -2 -4 -5 0
-19 8 -32 15 -22 13 -25 -17 -27 -19 -1 -26 -27 -17 -58 4 -16 4 -28 0 -28 -4
0 -8 -6 -8 -14 0 -8 11 -13 24 -13 19 0 21 2 12 13 -7 9 -8 14 -1 14 14 0 23
-28 12 -35 -6 -4 -14 -4 -19 0 -6 3 -15 -4 -22 -16 -10 -19 -9 -21 5 -16 20 8
32 -11 17 -26 -9 -9 -11 -7 -5 8 6 16 4 18 -6 8 -8 -7 -14 -35 -14 -65 -1 -46
2 -55 24 -70 14 -10 20 -18 15 -18 -6 0 -16 5 -23 12 -7 7 -12 8 -13 2 -5 -55
-3 -64 9 -64 10 0 10 -4 -2 -16 -21 -21 -20 -27 3 -21 15 3 17 0 13 -17 -3
-11 -7 -15 -10 -8 -2 7 -8 10 -13 6 -5 -3 -5 -12 1 -23 5 -10 6 -21 3 -25 -11
-11 -12 -36 -2 -36 5 0 9 7 9 15 0 8 5 15 10 15 6 0 13 1 17 3 4 1 9 -10 10
-26 1 -16 -2 -25 -8 -21 -5 3 -7 15 -4 27 6 22 6 22 -10 2 -27 -33 -37 -55
-25 -55 8 0 8 -6 0 -20 -8 -14 -8 -20 0 -20 6 0 8 -4 5 -10 -3 -5 -8 -19 -10
-31 -3 -17 -1 -19 10 -9 8 6 16 7 19 2 3 -6 -1 -13 -10 -16 -8 -3 -13 -10 -9
-15 3 -6 13 -7 22 -4 12 5 14 3 8 -8 -8 -12 -6 -12 8 0 9 7 17 12 18 10 1 -2
2 -37 4 -77 2 -40 5 -75 8 -78 2 -2 16 0 30 5 23 9 26 8 29 -17 2 -15 -4 -33
-12 -40 -13 -11 -13 -12 0 -10 8 2 15 -4 15 -12 0 -8 5 -18 10 -22 6 -5 6 -8
-1 -8 -6 0 -11 -7 -11 -15 0 -11 11 -15 37 -15 26 0 37 -4 37 -15 0 -8 -5 -15
-10 -15 -5 0 -4 -6 2 -13 6 -8 8 -17 4 -20 -3 -4 10 -7 30 -7 22 0 37 -5 38
-12 1 -7 2 -22 3 -33 1 -16 9 -21 39 -23 32 -3 38 -7 37 -25 -4 -43 -1 -45 67
-46 72 -1 79 -3 67 -23 -15 -24 -12 -34 11 -36 13 -1 26 5 29 13 6 18 -5 20
-21 4 -8 -8 -13 -7 -18 2 -6 8 -4 10 5 4 9 -6 11 -4 5 5 -5 8 -4 11 3 6 6 -3
15 2 21 11 9 15 10 15 11 2 0 -28 36 -57 66 -53 16 1 34 -2 41 -8 9 -7 13 -7
13 1 0 6 10 9 23 7 12 -2 21 -10 19 -17 -1 -9 2 -8 11 3 14 17 32 19 55 5 7
-5 12 -3 12 5 0 10 2 10 9 -1 7 -11 10 -11 15 0 4 10 7 11 12 2 4 -9 13 -9 31
-2 17 6 30 6 36 0 6 -6 17 -7 27 -1 10 5 34 8 54 6 26 -2 35 1 32 10 -3 7 4
23 16 36 l20 23 -16 -28 c-18 -29 -19 -27 27 -41 7 -2 13 4 13 15 0 22 -7 24
-25 7 -8 -7 -6 -1 4 15 17 27 33 39 19 15 -6 -10 -4 -10 7 0 7 6 38 12 70 12
32 0 61 5 64 10 3 6 0 10 -7 10 -9 0 -9 3 2 10 13 8 13 10 -2 10 -9 0 -19 4
-22 9 -4 5 4 7 16 4 17 -3 19 -2 9 5 -10 7 -4 10 24 10 22 0 44 7 54 17 9 10
10 15 3 11 -8 -5 -11 0 -8 16 2 14 10 24 22 24 10 1 27 2 37 3 14 1 18 8 15
33 -3 27 1 32 24 39 17 4 29 3 32 -4 5 -14 7 -2 11 63 1 25 3 50 4 55 1 6 12
-2 25 -17 19 -21 25 -24 30 -12 3 9 1 12 -4 9 -6 -3 -10 -2 -10 2 0 5 -12 16
-27 26 l-28 18 25 -2 c49 -3 66 1 51 10 -7 5 -9 11 -4 14 6 4 9 33 9 67 -1 55
1 60 19 57 11 -1 26 -6 33 -10 6 -5 12 -4 12 0 0 5 -9 14 -20 21 -11 7 -20 17
-20 24 0 6 8 4 19 -6 17 -16 18 -15 16 9 -2 14 1 25 6 25 5 0 2 11 -7 25 -9
14 -12 25 -6 25 6 0 12 32 14 75 2 41 0 75 -4 75 -8 0 -12 -16 -9 -33 1 -5 -3
-6 -8 -3 -5 3 -15 -1 -22 -10 -11 -14 -10 -15 6 -12 17 3 20 -3 20 -39 0 -22
-3 -39 -7 -37 -4 2 -5 -8 -2 -23 3 -19 1 -24 -5 -14 -6 9 -11 10 -15 2 -11
-18 4 -34 19 -21 11 9 14 7 12 -9 -1 -13 -7 -20 -17 -18 -9 1 -14 -5 -14 -15
1 -10 -2 -18 -7 -18 -5 0 -8 19 -7 43 2 23 -1 48 -5 55 -5 7 -4 12 2 12 6 0
11 -5 11 -11 0 -5 4 -8 10 -4 5 3 7 12 4 20 -4 8 -9 13 -13 11 -4 -3 -7 4 -7
14 0 11 2 17 5 15 6 -7 31 16 31 28 0 7 -4 7 -12 -1 -17 -17 -25 -15 -25 5 0
10 10 25 21 35 l21 18 -24 20 c-13 11 -21 23 -17 27 3 3 14 -3 23 -14 10 -11
24 -18 31 -16 8 3 4 12 -13 25 -14 11 -25 24 -25 30 0 6 8 0 19 -13 l19 -23 3
47 c2 26 1 47 -3 47 -5 0 -8 -6 -8 -12 0 -10 -2 -10 -8 0 -5 7 -16 10 -28 6
-18 -6 -18 -6 1 9 11 8 22 11 25 7 3 -5 12 -5 20 0 10 6 11 10 3 10 -7 0 -10
7 -7 15 4 8 0 23 -7 32 -8 9 -9 14 -2 10 8 -5 12 14 15 67 2 52 0 72 -8 65 -6
-5 -15 -4 -22 3 -9 9 -12 9 -12 0 0 -6 8 -16 18 -22 14 -10 14 -11 0 -6 -26 8
-31 -7 -6 -21 l23 -14 -25 7 c-22 6 -23 5 -11 -9 7 -9 17 -14 22 -11 5 3 9 0
9 -5 0 -14 -11 -13 -32 2 -9 8 -15 22 -14 33 2 10 -2 25 -8 33 -8 11 -8 13 0
8 7 -4 15 0 18 9 8 21 8 26 -2 20 -4 -2 -8 4 -8 14 0 10 3 17 7 14 4 -2 13 4
20 13 12 14 11 15 -11 9 -20 -6 -22 -5 -8 4 19 12 18 38 -2 50 -12 7 -11 10 3
16 9 3 14 11 10 18 -4 7 -1 7 8 -1 11 -9 15 -29 14 -72 -1 -32 -5 -63 -9 -69
-3 -6 -2 -13 4 -17 5 -3 12 4 14 17 9 44 13 88 7 88 -3 0 -6 13 -7 30 -1 17 3
27 9 23 6 -3 7 -1 3 6 -4 6 -13 9 -19 5 -7 -3 -4 1 5 9 10 8 15 17 11 21 -13
12 -14 48 -1 40 7 -4 8 -3 4 5 -4 6 -12 9 -17 6 -5 -4 -9 -1 -9 5 0 6 -5 8
-10 5 -6 -4 -7 -12 -3 -18 11 -18 12 -38 2 -31 -5 3 -7 9 -4 14 3 5 -3 13 -12
19 -11 6 -13 11 -5 11 7 0 10 5 7 10 -4 6 -10 8 -14 6 -3 -3 -7 4 -7 14 0 10
4 17 7 14 4 -2 10 0 14 6 3 5 1 10 -5 10 -8 0 -8 6 0 20 6 11 7 20 3 20 -7 0
-9 35 -4 78 1 14 41 17 41 3 0 -5 -7 -8 -16 -7 -9 0 -19 -4 -21 -10 -2 -7 4
-11 14 -10 10 0 17 -5 15 -12 -1 -8 2 -11 8 -7 5 3 10 19 10 35 0 30 -19 43
-47 34 -15 -5 -16 -4 -3 5 8 5 24 8 35 5 16 -4 21 0 22 18 2 17 0 19 -7 8 -5
-8 -12 -12 -15 -8 -3 3 1 13 10 22 9 9 12 16 7 16 -5 0 -7 12 -5 28 4 21 2 24
-6 12 -8 -11 -11 -11 -11 -2 0 7 7 15 15 18 8 4 12 11 8 18 -4 6 -6 21 -4 34
3 25 -8 28 -29 10 -12 -11 -12 -10 -1 5 7 9 19 17 25 17 8 0 11 13 8 35 -3 21
-8 32 -15 28 -6 -4 -7 -1 -2 7 5 9 2 10 -13 6 -11 -4 -23 -2 -27 3 -4 7 1 8
11 4 12 -5 15 -3 9 6 -6 10 -3 11 13 2 11 -6 22 -11 24 -11 2 0 2 26 0 58 -3
47 -7 59 -20 59 -9 0 -21 -6 -27 -14 -7 -10 -10 -2 -12 28 -1 34 1 38 13 29
11 -10 15 -9 20 3 3 9 13 14 22 10 14 -4 14 -3 3 5 -13 9 -13 13 0 28 8 10 9
15 2 11 -6 -4 -14 -3 -18 3 -4 6 -11 7 -17 4 -6 -4 -9 -1 -6 7 3 8 12 13 22
11 9 -2 16 1 16 7 0 11 -18 9 -45 -6 -20 -11 -20 -9 -18 38 2 27 -1 49 -7 49
-6 0 -6 9 0 25 7 18 6 25 -3 25 -8 0 -7 4 3 10 11 7 3 10 -30 10 -33 0 -41 3
-30 10 8 5 10 10 4 10 -6 0 -10 10 -9 23 1 12 -2 30 -7 40 -5 10 -5 17 1 17 5
0 7 8 4 18 -2 10 -11 19 -19 19 -10 0 -11 -4 -3 -13 11 -13 9 -36 -5 -46 -16
-11 -34 3 -32 27 0 13 4 21 9 18 4 -2 7 1 7 6 0 6 -9 11 -20 11 -23 0 -24 4
-10 31 11 20 -3 28 -15 9 -3 -5 -11 -10 -17 -10 -5 0 0 9 13 20 l24 19 -42 2
c-24 1 -47 3 -53 4 -5 1 -14 3 -19 4 -5 0 -12 8 -15 17 -3 8 -2 12 3 9 5 -3
12 -1 16 5 3 5 1 10 -5 10 -6 0 -9 4 -5 9 3 6 -15 11 -40 13 -25 2 -46 8 -46
13 0 6 -5 15 -10 22 -7 7 -6 14 2 19 8 4 9 3 5 -4 -5 -8 -1 -10 10 -5 15 6 15
7 -1 15 -9 6 -30 8 -46 6 -16 -3 -29 -2 -29 1 0 4 -34 6 -76 6 -84 -1 -107 9
-93 40 9 19 9 19 5 -2 -2 -12 2 -24 10 -27 8 -3 14 1 14 9 0 20 13 26 30 13
13 -8 13 -9 -1 -5 -9 3 -16 -1 -16 -8 0 -10 5 -11 17 -5 11 6 21 5 27 -1 9 -9
11 12 4 42 -2 10 -316 7 -328 -3 -8 -6 -13 -7 -13 -1 0 5 -7 10 -15 10 -8 0
-12 -4 -10 -8 3 -4 -2 -9 -10 -13 -8 -3 -18 2 -23 11 -6 11 -11 12 -16 4z
m211 -14 c0 -8 -6 -14 -14 -14 -9 0 -10 4 -2 14 6 7 12 13 14 13 1 0 2 -6 2
-13z m63 10 c0 -2 -8 -11 -18 -20 -15 -14 -19 -15 -19 -2 0 8 4 12 8 9 4 -2
10 0 14 6 6 10 15 14 15 7z m35 -6 c3 -5 0 -13 -6 -17 -7 -4 -9 -3 -5 4 3 5 0
13 -6 15 -9 4 -10 6 -1 6 6 1 14 -3 18 -8z m95 -1 c8 -5 12 -11 10 -14 -3 -2
-14 2 -24 10 -22 15 -10 19 14 4z m-330 -4 c0 -3 -4 -8 -10 -11 -5 -3 -10 -1
-10 4 0 6 5 11 10 11 6 0 10 -2 10 -4z m77 -11 c0 -8 -4 -15 -9 -15 -10 0 -11
14 -1 23 9 10 10 9 10 -8z m55 -19 c10 6 11 4 0 -7 -10 -11 -15 -10 -30 6 -15
17 -15 18 0 6 9 -7 23 -9 30 -5z m84 2 c4 -7 4 -10 -1 -6 -4 4 -15 2 -24 -5
-14 -11 -14 -10 -2 6 16 20 18 21 27 5z m-396 -34 c0 -8 -19 -13 -24 -6 -3 5
1 9 9 9 8 0 15 -2 15 -3z m15 -44 c3 -6 -1 -7 -9 -4 -18 7 -21 14 -7 14 6 0
13 -4 16 -10z m-132 -33 c-3 -5 1 -13 8 -18 11 -7 11 -9 1 -9 -7 0 -11 -4 -8
-8 2 -4 -6 -8 -18 -8 -17 0 -23 6 -22 21 1 11 5 23 9 26 13 9 37 6 30 -4z
m957 -61 c0 -2 -7 -7 -16 -10 -8 -3 -12 -2 -9 4 6 10 25 14 25 6z m0 -40 c0
-3 -4 -8 -10 -11 -5 -3 -10 -1 -10 4 0 6 5 11 10 11 6 0 10 -2 10 -4z m-1102
-37 c-2 -3 3 -13 11 -22 7 -10 12 -17 10 -18 -2 -1 -16 -2 -31 -3 -24 -3 -26
-1 -15 12 10 13 9 15 -7 8 -19 -7 -19 -6 -1 14 16 18 42 25 33 9z m-84 -141
c-5 -8 -1 -9 12 -4 14 5 16 4 7 -5 -13 -13 -37 -3 -28 12 4 5 8 9 11 9 3 0 2
-5 -2 -12z m1331 -27 c-3 -6 -11 -11 -16 -11 -5 0 -4 6 3 14 14 16 24 13 13
-3z m81 -144 c4 -4 2 -7 -5 -7 -7 0 -10 -4 -6 -9 8 -15 -9 -21 -25 -9 -12 8
-12 9 3 4 11 -3 16 -2 12 4 -3 6 -13 10 -21 10 -8 0 -12 4 -9 10 6 10 40 8 51
-3z m-8 -119 c-8 -7 -21 -22 -27 -33 l-11 -20 2 20 c3 20 25 44 42 45 6 0 3
-6 -6 -12z m12 -18 c0 -5 -5 -10 -11 -10 -5 0 -7 5 -4 10 3 6 8 10 11 10 2 0
4 -4 4 -10z m-1484 -58 c1 -28 0 -30 -14 -16 -13 14 -13 17 -1 25 12 8 12 11
-1 20 -13 9 -13 10 0 7 8 -3 15 -18 16 -36z m27 -5 c3 -8 2 -20 -3 -26 -5 -9
-7 -4 -7 13 0 29 2 32 10 13z m1427 -31 c0 -3 -4 -8 -10 -11 -5 -3 -10 -1 -10
4 0 6 5 11 10 11 6 0 10 -2 10 -4z m20 -37 c0 -5 -7 -9 -16 -9 -8 0 -13 -4 -9
-9 3 -5 1 -12 -4 -15 -5 -4 -8 2 -7 11 2 9 8 19 14 21 7 2 9 9 6 14 -4 7 -2 8
4 4 7 -4 12 -11 12 -17z m-1454 -54 c1 -14 -2 -25 -8 -25 -5 0 -6 5 -2 12 5 8
2 9 -11 4 -18 -7 -18 -6 0 14 10 11 19 20 19 20 1 0 2 -11 2 -25z m1444 -10
c0 -2 -6 -5 -13 -8 -8 -3 -14 1 -14 8 0 7 6 11 14 8 7 -3 13 -6 13 -8z m10
-25 c0 -5 -4 -10 -10 -10 -5 0 -10 5 -10 10 0 6 5 10 10 10 6 0 10 -4 10 -10z
m-15 -36 c9 -15 12 -23 6 -20 -11 7 -35 46 -28 46 3 0 12 -12 22 -26z m-1430
-24 c3 -5 1 -10 -4 -10 -6 0 -11 5 -11 10 0 6 2 10 4 10 3 0 8 -4 11 -10z
m1445 -20 c0 -5 -4 -10 -10 -10 -5 0 -10 5 -10 10 0 6 5 10 10 10 6 0 10 -4
10 -10z m-27 -15 c4 -8 3 -16 -1 -19 -4 -3 -9 4 -9 15 -2 23 3 25 10 4z m10
-296 c7 -1 15 -1 20 0 13 2 8 -17 -6 -22 -20 -7 -32 4 -34 33 -1 14 0 18 3 8
3 -10 11 -19 17 -19z m-22 -52 c-10 -9 -11 -8 -5 6 3 10 9 15 12 12 3 -3 0
-11 -7 -18z m13 -52 c3 -8 1 -15 -4 -15 -6 0 -10 7 -10 15 0 8 2 15 4 15 2 0
6 -7 10 -15z m-1419 -52 c5 -14 3 -15 -6 -6 -6 6 -19 9 -28 6 -14 -4 -14 -3
-1 6 21 15 27 14 35 -6z m-40 -21 c-3 -3 -11 0 -18 7 -9 10 -8 11 6 5 10 -3
15 -9 12 -12z m20 -11 c-3 -6 -14 -10 -23 -10 -15 1 -15 2 1 6 9 2 17 9 17 15
0 6 3 9 6 5 3 -3 3 -10 -1 -16z m25 -75 c0 -3 -4 -8 -10 -11 -5 -3 -10 -1 -10
4 0 6 5 11 10 11 6 0 10 -2 10 -4z m1441 -50 c7 4 10 3 5 -4 -11 -18 -42 -10
-42 11 0 17 1 17 12 2 8 -10 18 -14 25 -9z m-1468 -29 c4 3 7 1 7 -5 0 -17
-16 -15 -31 6 -12 15 -12 16 2 5 9 -7 19 -10 22 -6z m1447 -7 c0 -5 -4 -10
-10 -10 -5 0 -10 5 -10 10 0 6 5 10 10 10 6 0 10 -4 10 -10z m7 -35 c-19 -19
-24 -19 -24 0 0 8 4 12 8 9 4 -2 11 1 14 7 4 5 9 8 12 5 3 -3 -2 -12 -10 -21z
m-1467 -15 c6 -11 9 -20 8 -20 -2 0 -11 9 -21 20 -9 11 -13 20 -7 20 5 0 14
-9 20 -20z m1480 -50 c12 -7 10 -9 -8 -7 -12 0 -22 5 -22 9 0 11 12 10 30 -2z
m-1477 -30 c3 -11 1 -18 -4 -14 -5 3 -9 12 -9 20 0 20 7 17 13 -6z m22 -30
c-3 -5 -12 -10 -18 -10 -7 0 -6 4 3 10 19 12 23 12 15 0z m15 -40 c0 -5 -5
-10 -11 -10 -5 0 -7 5 -4 10 3 6 8 10 11 10 2 0 4 -4 4 -10z m1420 1 c0 -6 -4
-12 -8 -15 -5 -3 -9 1 -9 9 0 8 4 15 9 15 4 0 8 -4 8 -9z m-1455 -121 c5 -8
12 -7 23 2 15 11 15 11 5 -3 -7 -9 -10 -19 -6 -22 3 -4 1 -7 -7 -7 -10 0 -10
-4 1 -17 10 -11 10 -14 2 -9 -8 4 -13 2 -13 -4 0 -6 -4 -8 -10 -5 -6 3 -7 -1
-3 -10 3 -9 9 -13 12 -8 3 4 13 9 21 11 12 3 12 1 3 -9 -6 -6 -9 -17 -7 -24 7
-16 -12 -29 -21 -15 -3 5 -1 10 6 10 7 0 4 6 -6 14 -11 8 -24 12 -29 9 -5 -4
-6 0 -1 7 4 7 9 22 9 34 1 11 8 20 15 18 7 -1 11 3 8 10 -2 7 -10 12 -16 11
-6 -2 -11 2 -11 7 0 13 17 13 25 0z m355 -580 c0 -5 -6 -10 -12 -10 -10 0 -10
-2 0 -9 11 -7 11 -9 -1 -14 -10 -4 -14 0 -12 11 2 9 4 20 4 25 1 11 21 8 21
-3z m17 -22 c-3 -8 -6 -5 -6 6 -1 11 2 17 5 13 3 -3 4 -12 1 -19z m738 12 c3
-6 -1 -7 -9 -4 -18 7 -21 14 -7 14 6 0 13 -4 16 -10z m8 -27 c-7 -2 -19 -2
-25 0 -7 3 -2 5 12 5 14 0 19 -2 13 -5z m-596 -28 c0 -8 -4 -12 -9 -9 -5 3 -6
10 -3 15 9 13 12 11 12 -6z"/>
<path d="M3047 6016 c-3 -8 -2 -18 3 -21 13 -8 20 9 11 24 -6 10 -10 9 -14 -3z"/>
<path d="M2913 5872 c0 -10 7 -19 14 -19 9 0 10 4 3 12 -5 7 -7 15 -3 18 3 4
1 7 -5 7 -6 0 -10 -8 -9 -18z"/>
<path d="M2760 4120 c0 -5 5 -10 11 -10 5 0 7 5 4 10 -3 6 -8 10 -11 10 -2 0
-4 -4 -4 -10z"/>
<path d="M3744 6158 c-12 -14 -13 -18 -3 -10 9 6 18 10 21 7 2 -3 5 2 5 10 0
19 0 19 -23 -7z"/>
<path d="M6906 6106 c10 -8 21 -12 24 -10 5 6 -21 24 -34 24 -6 0 -1 -6 10
-14z"/>
<path d="M4577 6093 c-10 -9 -9 -23 1 -23 5 0 9 7 9 15 0 17 -1 18 -10 8z"/>
<path d="M6890 6093 c8 -3 7 -9 -1 -19 -10 -12 -9 -13 5 -8 18 7 17 26 -2 30
-7 1 -8 0 -2 -3z"/>
<path d="M3960 6039 c0 -5 6 -7 13 -3 6 4 4 -2 -6 -13 -12 -14 -15 -23 -8 -28
6 -3 11 0 11 7 0 11 2 11 9 0 5 -9 8 -3 9 17 0 21 -4 31 -14 31 -8 0 -14 -5
-14 -11z"/>
<path d="M4590 6040 c0 -5 5 -10 11 -10 5 0 7 5 4 10 -3 6 -8 10 -11 10 -2 0
-4 -4 -4 -10z"/>
<path d="M4575 5940 c-3 -5 -1 -10 4 -10 6 0 11 5 11 10 0 6 -2 10 -4 10 -3 0
-8 -4 -11 -10z"/>
<path d="M3 5892 c1 -17 5 -28 9 -26 5 3 8 0 8 -6 0 -8 6 -8 20 0 11 6 20 16
20 23 0 8 -3 7 -9 -2 -5 -8 -16 -11 -26 -8 -9 4 -14 10 -11 15 2 4 1 14 -4 21
-5 9 -7 3 -7 -17z"/>
<path d="M4087 5875 c-4 -8 -1 -17 5 -21 7 -4 8 -3 4 4 -4 7 -2 12 3 12 6 0
11 5 11 10 0 15 -17 12 -23 -5z"/>
<path d="M4573 5865 c0 -8 4 -12 9 -9 5 3 6 10 3 15 -9 13 -12 11 -12 -6z"/>
<path d="M4176 5818 c3 -5 10 -6 15 -3 13 9 11 12 -6 12 -8 0 -12 -4 -9 -9z"/>
<path d="M4574 5720 c0 -16 3 -27 6 -25 8 5 6 42 -1 50 -3 2 -5 -8 -5 -25z"/>
<path d="M2415 5620 c-3 -5 -1 -10 4 -10 6 0 11 5 11 10 0 6 -2 10 -4 10 -3 0
-8 -4 -11 -10z"/>
<path d="M2736 5618 c3 -4 12 -8 20 -8 8 0 14 4 14 8 0 4 -9 8 -19 8 -11 0
-17 -4 -15 -8z"/>
<path d="M4573 5575 c0 -8 4 -12 9 -9 5 3 6 10 3 15 -9 13 -12 11 -12 -6z"/>
<path d="M2750 5560 c-8 -5 -11 -12 -7 -16 4 -4 2 -13 -4 -20 -7 -8 -7 -14 0
-18 7 -4 7 -15 1 -31 -7 -17 -5 -25 5 -29 18 -7 39 29 40 67 1 25 -1 26 -11
12 -7 -9 -15 -12 -18 -6 -4 5 3 16 14 24 29 20 11 37 -20 17z m23 -54 c9 10 2
-20 -11 -41 -11 -19 -12 -19 -8 5 2 14 -2 32 -8 40 -9 13 -9 13 5 3 9 -7 18
-10 22 -7z"/>
<path d="M2410 5539 c0 -5 5 -7 10 -4 6 3 10 8 10 11 0 2 -4 4 -10 4 -5 0 -10
-5 -10 -11z"/>
<path d="M4575 5540 c-3 -5 -1 -10 4 -10 6 0 11 5 11 10 0 6 -2 10 -4 10 -3 0
-8 -4 -11 -10z"/>
<path d="M4245 5520 c-4 -6 -10 -8 -14 -6 -4 3 -8 0 -8 -7 0 -7 9 -13 19 -13
10 0 18 4 18 9 0 4 4 5 10 2 6 -3 7 1 4 9 -7 18 -20 21 -29 6z"/>
<path d="M2430 5481 c0 -6 4 -13 10 -16 6 -3 7 1 4 9 -7 18 -14 21 -14 7z"/>
<path d="M4566 5458 c3 -5 10 -6 15 -3 13 9 11 12 -6 12 -8 0 -12 -4 -9 -9z"/>
<path d="M2410 5340 c0 -5 5 -10 11 -10 5 0 7 5 4 10 -3 6 -8 10 -11 10 -2 0
-4 -4 -4 -10z"/>
<path d="M4570 5339 c0 -5 5 -7 10 -4 6 3 10 8 10 11 0 2 -4 4 -10 4 -5 0 -10
-5 -10 -11z"/>
<path d="M37 5333 c-4 -3 -7 -11 -7 -17 0 -6 5 -5 12 2 6 6 9 14 7 17 -3 3 -9
2 -12 -2z"/>
<path d="M2765 5320 c3 -5 2 -10 -3 -10 -10 0 -35 -50 -29 -57 2 -2 16 12 30
30 24 32 26 47 5 47 -5 0 -6 -4 -3 -10z"/>
<path d="M4575 5300 c-3 -5 -1 -10 4 -10 6 0 11 5 11 10 0 6 -2 10 -4 10 -3 0
-8 -4 -11 -10z"/>
<path d="M4573 5225 c0 -8 4 -12 9 -9 5 3 6 10 3 15 -9 13 -12 11 -12 -6z"/>
<path d="M2739 5206 c0 -6 -2 -21 -3 -33 -2 -14 3 -23 11 -23 11 0 10 -5 -3
-25 -9 -15 -12 -25 -5 -25 7 0 7 -8 2 -22 -6 -16 -4 -27 8 -36 14 -12 14 -13
-4 -7 -16 5 -17 4 -8 -6 8 -8 9 -18 2 -31 -5 -10 -8 -18 -7 -19 2 0 13 -2 25
-3 19 -2 21 0 11 12 -10 11 -7 18 12 32 22 17 22 18 5 17 -12 -1 -19 3 -17 11
1 8 -2 11 -8 7 -11 -7 -14 8 -3 19 11 10 11 70 0 84 -6 8 -6 12 1 12 5 0 10
11 10 23 0 23 -27 35 -29 13z"/>
<path d="M4574 5086 c1 -14 4 -28 7 -31 3 -3 5 6 5 19 -1 14 -4 28 -7 31 -3 3
-5 -6 -5 -19z"/>
<path d="M2414 5076 c1 -8 5 -18 8 -22 4 -3 5 1 4 10 -1 8 -5 18 -8 22 -4 3
-5 -1 -4 -10z"/>
<path d="M4227 5023 c-3 -5 -1 -17 3 -27 5 -15 9 -16 15 -7 4 8 2 16 -5 21
-10 6 -9 9 1 13 9 3 10 6 2 6 -6 1 -14 -2 -16 -6z"/>
<path d="M4573 5015 c0 -8 4 -12 9 -9 5 3 6 10 3 15 -9 13 -12 11 -12 -6z"/>
<path d="M4258 4998 c-3 -7 -4 -31 -3 -54 1 -28 -3 -41 -12 -41 -10 0 -10 3 0
15 10 13 9 14 -3 10 -8 -2 -15 -11 -15 -18 0 -16 41 -24 50 -10 3 6 2 10 -2
10 -5 0 -9 9 -9 20 0 11 4 20 8 20 5 0 4 9 -2 20 -7 14 -7 20 0 20 5 0 10 5
10 10 0 14 -17 12 -22 -2z"/>
<path d="M6810 4979 c0 -5 5 -7 10 -4 6 3 10 8 10 11 0 2 -4 4 -10 4 -5 0 -10
-5 -10 -11z"/>
<path d="M4230 4954 c0 -8 5 -12 10 -9 6 3 10 10 10 16 0 5 -4 9 -10 9 -5 0
-10 -7 -10 -16z"/>
<path d="M4555 4960 c3 -5 8 -10 11 -10 2 0 4 5 4 10 0 6 -5 10 -11 10 -5 0
-7 -4 -4 -10z"/>
<path d="M2772 4921 c2 -7 7 -12 11 -12 12 1 9 15 -3 20 -7 2 -11 -2 -8 -8z"/>
<path d="M6753 4913 c-7 -2 -13 -9 -13 -14 0 -6 5 -7 10 -4 13 8 13 -8 0 -21
-7 -7 -6 -11 3 -11 8 0 13 12 13 29 0 15 0 28 0 27 -1 0 -7 -3 -13 -6z"/>
<path d="M2435 4880 c-3 -5 -1 -10 4 -10 6 0 11 5 11 10 0 6 -2 10 -4 10 -3 0
-8 -4 -11 -10z"/>
<path d="M230 4872 c0 -5 7 -9 15 -9 8 0 12 4 9 9 -3 4 -9 8 -15 8 -5 0 -9 -4
-9 -8z"/>
<path d="M6673 4836 c0 -10 8 -13 25 -10 22 4 24 3 12 -11 -7 -8 -11 -17 -9
-20 3 -2 10 4 16 15 10 14 9 21 -2 30 -12 10 -15 10 -15 0 0 -9 -3 -10 -13 -1
-10 8 -14 7 -14 -3z"/>
<path d="M2413 4775 c0 -8 4 -12 9 -9 5 3 6 10 3 15 -9 13 -12 11 -12 -6z"/>
<path d="M365 4761 c3 -22 20 -24 36 -4 11 15 11 16 -1 6 -19 -17 -35 -17 -21
0 8 10 7 14 -3 14 -8 0 -13 -7 -11 -16z"/>
<path d="M4235 4760 c-3 -5 -1 -10 4 -10 6 0 11 5 11 10 0 6 -2 10 -4 10 -3 0
-8 -4 -11 -10z"/>
<path d="M4555 4761 c-3 -5 -2 -12 3 -15 5 -3 9 1 9 9 0 17 -3 19 -12 6z"/>
<path d="M6605 4760 c-3 -6 1 -7 9 -4 18 7 21 14 7 14 -6 0 -13 -4 -16 -10z"/>
<path d="M6620 4742 c-18 -15 -20 -19 -7 -19 10 0 15 3 12 5 -3 3 3 11 13 18
9 7 14 14 11 14 -4 0 -17 -8 -29 -18z"/>
<path d="M2416 4742 c-3 -4 4 -9 15 -9 23 -2 25 3 4 10 -8 4 -16 3 -19 -1z"/>
<path d="M2736 4742 c-4 -7 -2 -12 3 -12 6 0 10 -5 9 -11 -2 -6 3 -14 10 -16
16 -6 15 9 -1 32 -10 12 -16 14 -21 7z"/>
<path d="M455 4681 c-3 -5 -2 -12 3 -15 5 -3 9 1 9 9 0 17 -3 19 -12 6z"/>
<path d="M2416 4662 c-3 -4 4 -9 15 -9 23 -2 25 3 4 10 -8 4 -16 3 -19 -1z"/>
<path d="M4230 4659 c0 -5 5 -7 10 -4 6 3 10 8 10 11 0 2 -4 4 -10 4 -5 0 -10
-5 -10 -11z"/>
<path d="M2413 4535 c0 -8 4 -12 9 -9 5 3 6 10 3 15 -9 13 -12 11 -12 -6z"/>
<path d="M6315 4540 c-3 -5 -1 -10 4 -10 6 0 11 5 11 10 0 6 -2 10 -4 10 -3 0
-8 -4 -11 -10z"/>
<path d="M6341 4524 c0 -11 3 -14 6 -6 3 7 2 16 -1 19 -3 4 -6 -2 -5 -13z"/>
<path d="M736 4482 c-3 -5 1 -9 9 -9 8 0 12 4 9 9 -3 4 -7 8 -9 8 -2 0 -6 -4
-9 -8z"/>
<path d="M845 4420 c-2 -3 0 -12 5 -20 7 -11 12 -11 23 -2 7 7 16 10 19 7 2
-3 5 1 5 8 0 13 -45 19 -52 7z m35 -6 c0 -8 -19 -13 -24 -6 -3 5 1 9 9 9 8 0
15 -2 15 -3z"/>
<path d="M6046 4342 c-3 -5 1 -9 9 -9 8 0 12 4 9 9 -3 4 -7 8 -9 8 -2 0 -6 -4
-9 -8z"/>
<path d="M5839 4210 c-12 -8 -12 -11 0 -22 9 -8 11 -9 7 -1 -3 6 -1 15 5 19 8
4 9 3 5 -4 -4 -7 -1 -12 6 -12 7 -1 2 -7 -12 -15 l-25 -14 27 1 c15 1 25 5 22
9 -2 4 2 10 8 12 10 4 9 6 -1 6 -10 1 -11 4 -3 14 8 10 7 13 -7 14 -9 1 -24
-2 -32 -7z"/>
<path d="M4230 4179 c0 -5 5 -7 10 -4 6 3 10 8 10 11 0 2 -4 4 -10 4 -5 0 -10
-5 -10 -11z"/>
<path d="M4570 4081 c0 -6 4 -12 8 -15 5 -3 9 1 9 9 0 8 -4 15 -9 15 -4 0 -8
-4 -8 -9z"/>
<path d="M1347 4002 c1 -3 -2 -14 -8 -25 -7 -12 -7 -17 -1 -13 6 3 12 3 15 -1
2 -5 2 -1 0 7 -2 10 2 8 12 -4 8 -11 15 -15 15 -9 0 6 -8 19 -17 30 -10 10
-17 17 -16 15z"/>
<path d="M4558 3963 c7 -12 9 -23 4 -26 -4 -2 -2 -3 3 -1 6 1 11 -6 11 -16 0
-12 -6 -16 -16 -12 -8 3 -12 2 -8 -3 4 -4 22 -9 40 -11 29 -3 31 -2 16 10 -19
14 -25 32 -8 21 18 -11 10 0 -22 30 -24 23 -29 25 -20 8z"/>
<path d="M2825 3844 c-9 -14 -14 -28 -11 -31 3 -3 8 2 12 11 3 9 10 14 14 11
5 -3 12 0 16 6 4 8 3 9 -4 5 -7 -4 -12 -3 -12 3 0 5 6 12 13 14 7 4 8 6 1 6
-7 1 -19 -11 -29 -25z"/>
<path d="M2490 3800 c-9 -6 -10 -10 -3 -10 6 0 15 5 18 10 8 12 4 12 -15 0z"/>
<path d="M2515 3789 c-4 -6 -5 -12 -2 -15 2 -3 7 2 10 11 7 17 1 20 -8 4z"/>
<path d="M2470 3760 c0 -5 7 -7 15 -4 8 4 15 8 15 10 0 2 -7 4 -15 4 -8 0 -15
-4 -15 -10z"/>
<path d="M2565 3660 c-16 -7 -17 -9 -3 -9 9 -1 20 4 23 9 7 11 7 11 -20 0z"/>
<path d="M1637 3629 c7 -7 15 -10 18 -7 3 3 -2 9 -12 12 -14 6 -15 5 -6 -5z"/>
<path d="M5365 3619 c-4 -6 -5 -12 -2 -15 2 -3 7 2 10 11 7 17 1 20 -8 4z"/>
<path d="M3804 3499 c-3 -6 -2 -15 3 -20 5 -5 9 -1 9 11 0 23 -2 24 -12 9z"/>
<path d="M3271 3474 c0 -11 3 -14 6 -6 3 7 2 16 -1 19 -3 4 -6 -2 -5 -13z"/>
<path d="M3475 3451 c-3 -5 -2 -12 3 -15 5 -3 9 1 9 9 0 17 -3 19 -12 6z"/>
<path d="M3430 3426 c0 -2 7 -7 16 -10 8 -3 12 -2 9 4 -6 10 -25 14 -25 6z"/>
<path d="M2745 3381 c3 -6 14 -8 25 -6 12 2 18 0 15 -6 -4 -5 -10 -7 -15 -4
-5 3 -11 1 -14 -4 -9 -14 32 -20 43 -7 7 9 7 16 -1 24 -14 14 -62 16 -53 3z"/>
<path d="M4207 3376 c-3 -8 -1 -18 5 -24 14 -14 49 3 42 21 -6 17 -41 19 -47
3z m32 -17 c-15 -9 -32 -2 -24 11 3 5 13 6 21 3 12 -4 13 -8 3 -14z"/>
<path d="M5140 3361 c0 -25 13 -39 30 -32 24 10 20 39 -6 44 -17 3 -24 0 -24
-12z"/>
<path d="M2995 3241 c-3 -5 -2 -12 3 -15 5 -3 9 1 9 9 0 17 -3 19 -12 6z"/>
<path d="M1920 3235 c0 -2 6 -8 13 -14 10 -8 14 -7 14 2 0 8 -6 14 -14 14 -7
0 -13 -1 -13 -2z"/>
<path d="M5100 3230 c-7 -18 -5 -49 3 -41 5 5 7 17 4 27 -3 11 -6 17 -7 14z"/>
<path d="M2975 3210 c3 -5 8 -10 11 -10 2 0 4 5 4 10 0 6 -5 10 -11 10 -5 0
-7 -4 -4 -10z"/>
<path d="M3403 3101 c-9 -14 -9 -21 0 -30 15 -15 24 -14 24 4 0 8 -5 15 -11
15 -6 0 -5 4 3 9 7 5 9 11 4 14 -5 3 -14 -2 -20 -12z"/>
<path d="M3553 3075 c0 -9 4 -14 9 -13 5 2 10 8 10 13 0 5 -5 11 -10 13 -5 1
-9 -4 -9 -13z"/>
<path d="M4955 2950 c3 -6 -1 -13 -10 -16 -12 -5 -13 -10 -4 -20 6 -8 16 -11
21 -8 6 4 5 10 -3 15 -10 6 -11 9 -1 9 6 0 12 7 12 15 0 8 -5 15 -11 15 -5 0
-7 -5 -4 -10z"/>
<path d="M4862 2751 c-10 -6 -10 -10 3 -21 20 -17 19 -31 -2 -24 -15 5 -15 4
-3 -4 17 -13 33 -5 26 13 -2 7 1 19 7 26 8 8 5 8 -7 -1 -18 -14 -19 -13 -13 3
7 19 7 20 -11 8z"/>
<path d="M2177 2530 c6 -7 9 -18 7 -25 -7 -17 13 -29 22 -14 4 8 3 9 -4 5 -7
-4 -12 -3 -12 3 0 5 5 11 10 13 6 2 0 9 -12 17 -15 9 -19 9 -11 1z"/>
<path d="M4810 2520 c0 -5 5 -10 10 -10 6 0 10 5 10 10 0 6 -4 10 -10 10 -5 0
-10 -4 -10 -10z"/>
<path d="M2283 2234 c-15 -16 -16 -24 -4 -24 8 0 24 30 19 35 -2 2 -9 -3 -15
-11z"/>
<path d="M4750 2199 c0 -5 5 -7 10 -4 6 3 10 8 10 11 0 2 -4 4 -10 4 -5 0 -10
-5 -10 -11z"/>
<path d="M4714 2174 c1 -8 4 -15 7 -16 2 -2 3 -1 2 1 -2 2 2 9 7 16 7 8 5 12
-4 12 -8 0 -13 -6 -12 -13z"/>
<path d="M2340 1926 c0 -2 8 -10 18 -17 15 -13 16 -12 3 4 -13 16 -21 21 -21
13z"/>
<path d="M2320 1766 c7 -7 13 -7 20 0 6 6 3 10 -10 10 -13 0 -16 -4 -10 -10z"/>
<path d="M4656 1765 c-3 -8 -1 -15 4 -15 6 0 10 7 10 15 0 8 -2 15 -4 15 -2 0
-6 -7 -10 -15z"/>
<path d="M2355 1759 c-4 -6 -5 -12 -2 -15 2 -3 7 2 10 11 7 17 1 20 -8 4z"/>
<path d="M4665 1720 c-3 -6 1 -7 9 -4 18 7 21 14 7 14 -6 0 -13 -4 -16 -10z"/>
<path d="M2349 1643 c-13 -16 -12 -17 4 -4 16 13 21 21 13 21 -2 0 -10 -8 -17
-17z"/>
<path d="M4574 1240 c0 -16 6 -32 13 -34 11 -4 11 -1 3 14 -6 11 -8 25 -5 30
3 5 2 11 -3 14 -5 3 -8 -8 -8 -24z"/>
<path d="M2391 1206 c2 -2 13 -8 25 -14 16 -8 21 -8 21 1 0 7 -12 14 -25 15
-14 1 -24 0 -21 -2z"/>
<path d="M4607 1196 c-4 -10 -1 -13 8 -9 8 3 12 9 9 14 -7 12 -11 11 -17 -5z"/>
<path d="M4567 1186 c-4 -10 -1 -13 8 -9 8 3 12 9 9 14 -7 12 -11 11 -17 -5z"/>
<path d="M2384 1178 c-4 -6 -3 -8 4 -4 6 3 18 -1 26 -10 9 -8 16 -11 16 -5 0
17 -38 33 -46 19z"/>
<path d="M4589 1157 c7 -7 14 -8 21 -1 6 6 2 10 -12 11 -16 2 -18 -1 -9 -10z"/>
<path d="M4589 1123 c-13 -16 -12 -17 4 -4 9 7 17 15 17 17 0 8 -8 3 -21 -13z"/>
<path d="M2956 362 c-3 -5 1 -9 9 -9 8 0 12 4 9 9 -3 4 -7 8 -9 8 -2 0 -6 -4
-9 -8z"/>
</g>
</svg>
