<?xml version="1.0" encoding="utf-8"?>
<!-- Generator: Adobe Illustrator 19.0.0, SVG Export Plug-In . SVG Version: 6.00 Build 0)  -->
<svg version="1.1" id="Layer_1" xmlns="http://www.w3.org/2000/svg" xmlns:xlink="http://www.w3.org/1999/xlink" x="0px" y="0px"
	 viewBox="0 0 792 612" style="enable-background:new 0 0 792 612;" xml:space="preserve">
<style type="text/css">
	.st0{opacity:5.000000e-002;}
</style>
<g class="st0">
	<path d="M326.3,155.2c0.4,33.7,0,66.1,0,102.8c0,10.9-0.5,21.8,0,32c2.6,49.3,49.1,85.4,99.2,67.2c24.3-8.8,44.1-30,47.8-59.1
		c2.3-18.3,0.5-46.1,0.5-70.8c0-16.5,0-35.1,0-53.7c0-5.1-0.5-14.2,0-17.6c0,0,13.4-7.4,16.2-9c16.3-9.6,29.4-20.2,49.2-25.7
		c32.4-9.1,58.1,7.4,72.6,22.5c16,16.7,26.7,45.6,16.7,75.3c-8.5,25-28.9,36.5-49.2,50.5c-39.2,27.1-69.2,63.6-87.9,111.8
		c-9,23.1-14.2,53.7-17.1,81.6c-1.7,16.5-2.6,30.2-7.7,42.4c-9.2,22.1-27.9,40.2-55.9,43.7c-47.5,5.9-76.4-24.7-82.5-65.4
		c-2.3-15.4-2.9-30.6-5-45.1c-10.1-71.4-43.8-123.3-90.2-159.6c-27.9-21.9-66.1-36.5-64.9-84.8c0.4-15.1,5.2-28.5,11.3-38.3
		c12-19.5,32.8-36.8,64-37C280.3,118.9,298.3,141.5,326.3,155.2z"/>
	<path d="M398,157c24.4-1.6,45.3,15.9,50.1,37.9c2.7,12.5,0.9,36.4,0.9,49.6c0,15.8,1.3,35.5-0.5,50.1c-2,16.2-10.9,28.2-20.7,34.7
		c-30.1,20-72.9,2.2-76.7-36.5c-1.8-17.9,0-35.3,0-53.2c0-17.4-1.7-38.1,2.7-50.5C359.5,172.8,375.4,158.4,398,157z"/>
</g>
</svg>
